%TF.GenerationSoftware,KiCad,Pcbnew,10.0.1*%
%TF.CreationDate,2026-06-04T00:59:34+08:00*%
%TF.ProjectId,edge_asset_monitor,65646765-5f61-4737-9365-745f6d6f6e69,1.0*%
%TF.SameCoordinates,Original*%
%TF.FileFunction,Soldermask,Top*%
%TF.FilePolarity,Negative*%
%FSLAX46Y46*%
G04 Gerber Fmt 4.6, Leading zero omitted, Abs format (unit mm)*
G04 Created by KiCad (PCBNEW 10.0.1) date 2026-06-04 00:59:34*
%MOMM*%
%LPD*%
G01*
G04 APERTURE LIST*
G04 Aperture macros list*
%AMRoundRect*
0 Rectangle with rounded corners*
0 $1 Rounding radius*
0 $2 $3 $4 $5 $6 $7 $8 $9 X,Y pos of 4 corners*
0 Add a 4 corners polygon primitive as box body*
4,1,4,$2,$3,$4,$5,$6,$7,$8,$9,$2,$3,0*
0 Add four circle primitives for the rounded corners*
1,1,$1+$1,$2,$3*
1,1,$1+$1,$4,$5*
1,1,$1+$1,$6,$7*
1,1,$1+$1,$8,$9*
0 Add four rect primitives between the rounded corners*
20,1,$1+$1,$2,$3,$4,$5,0*
20,1,$1+$1,$4,$5,$6,$7,0*
20,1,$1+$1,$6,$7,$8,$9,0*
20,1,$1+$1,$8,$9,$2,$3,0*%
G04 Aperture macros list end*
%ADD10C,4.300000*%
%ADD11R,1.700000X1.700000*%
%ADD12C,1.700000*%
%ADD13RoundRect,0.250000X-0.550000X0.550000X-0.550000X-0.550000X0.550000X-0.550000X0.550000X0.550000X0*%
%ADD14C,1.600000*%
%ADD15RoundRect,0.250000X-0.550000X-0.550000X0.550000X-0.550000X0.550000X0.550000X-0.550000X0.550000X0*%
G04 APERTURE END LIST*
D10*
%TO.C,H1*%
X109220000Y-45402500D03*
%TD*%
D11*
%TO.C,J_IBT1*%
X149733000Y-106984800D03*
D12*
X149733000Y-109524800D03*
X149733000Y-112064800D03*
X149733000Y-114604800D03*
X149733000Y-117144800D03*
X149733000Y-119684800D03*
%TD*%
D11*
%TO.C,U3*%
X133032500Y-58737500D03*
D12*
X130492500Y-58737500D03*
X127952500Y-58737500D03*
X125412500Y-58737500D03*
%TD*%
D13*
%TO.C,U4*%
X143192500Y-65087500D03*
D14*
X140652500Y-65087500D03*
X138112500Y-65087500D03*
X135572500Y-65087500D03*
X133032500Y-65087500D03*
X130492500Y-65087500D03*
X127952500Y-65087500D03*
X125412500Y-65087500D03*
X122872500Y-65087500D03*
X120332500Y-65087500D03*
X117792500Y-65087500D03*
X115252500Y-65087500D03*
X115252500Y-80327500D03*
X117792500Y-80327500D03*
X120332500Y-80327500D03*
X122872500Y-80327500D03*
X125412500Y-80327500D03*
X127952500Y-80327500D03*
X130492500Y-80327500D03*
X133032500Y-80327500D03*
X135572500Y-80327500D03*
X138112500Y-80327500D03*
X140652500Y-80327500D03*
X143192500Y-80327500D03*
%TD*%
D10*
%TO.C,H2*%
X149225000Y-45402500D03*
%TD*%
D15*
%TO.C,U2*%
X125417500Y-44767500D03*
D14*
X125417500Y-47307500D03*
X125417500Y-49847500D03*
X133037500Y-49847500D03*
X133037500Y-47307500D03*
X133037500Y-44767500D03*
%TD*%
D10*
%TO.C,H4*%
X149225000Y-151447500D03*
%TD*%
%TO.C,H3*%
X109220000Y-151447500D03*
%TD*%
D11*
%TO.C,U1*%
X116522500Y-96837500D03*
D12*
X116522500Y-99377500D03*
X116522500Y-101917500D03*
X116522500Y-104457500D03*
X116522500Y-106997500D03*
X116522500Y-109537500D03*
X116522500Y-112077500D03*
X116522500Y-114617500D03*
X116522500Y-117157500D03*
X116522500Y-119697500D03*
X116522500Y-122237500D03*
X116522500Y-124777500D03*
X116522500Y-127317500D03*
X116522500Y-129857500D03*
X116522500Y-132397500D03*
X116522500Y-134937500D03*
X116522500Y-137477500D03*
X116522500Y-140017500D03*
X116522500Y-142557500D03*
X116522500Y-145097500D03*
X116522500Y-147637500D03*
X116522500Y-150177500D03*
D11*
X141922500Y-96837500D03*
D12*
X141922500Y-99377500D03*
X141922500Y-101917500D03*
X141922500Y-104457500D03*
X141922500Y-106997500D03*
X141922500Y-109537500D03*
X141922500Y-112077500D03*
X141922500Y-114617500D03*
X141922500Y-117157500D03*
X141922500Y-119697500D03*
X141922500Y-122237500D03*
X141922500Y-124777500D03*
X141922500Y-127317500D03*
X141922500Y-129857500D03*
X141922500Y-132397500D03*
X141922500Y-134937500D03*
X141922500Y-137477500D03*
X141922500Y-140017500D03*
X141922500Y-142557500D03*
X141922500Y-145097500D03*
X141922500Y-147637500D03*
X141922500Y-150177500D03*
%TD*%
M02*
