M48
; DRILL file KiCad 10.0.1 date 2026-06-04T00:59:37
; FORMAT={-:-/ absolute / metric / decimal}
; #@! TF.CreationDate,2026-06-04T00:59:37+08:00
; #@! TF.GenerationSoftware,Kicad,Pcbnew,10.0.1
; #@! TF.FileFunction,Plated,1,4,PTH
FMAT,2
METRIC
; #@! TA.AperFunction,Plated,PTH,ComponentDrill
T1C0.800
; #@! TA.AperFunction,Plated,PTH,ComponentDrill
T2C1.000
%
G90
G05
T1
X115.252Y-65.087
X115.252Y-80.328
X117.792Y-65.087
X117.792Y-80.328
X120.332Y-65.087
X120.332Y-80.328
X122.872Y-65.087
X122.872Y-80.328
X125.412Y-65.087
X125.412Y-80.328
X125.417Y-44.767
X125.417Y-47.307
X125.417Y-49.847
X127.953Y-65.087
X127.953Y-80.328
X130.493Y-65.087
X130.493Y-80.328
X133.032Y-65.087
X133.032Y-80.328
X133.037Y-44.767
X133.037Y-47.307
X133.037Y-49.847
X135.572Y-65.087
X135.572Y-80.328
X138.112Y-65.087
X138.112Y-80.328
X140.653Y-65.087
X140.653Y-80.328
X143.192Y-65.087
X143.192Y-80.328
T2
X116.522Y-96.837
X116.522Y-99.377
X116.522Y-101.917
X116.522Y-104.457
X116.522Y-106.997
X116.522Y-109.537
X116.522Y-112.078
X116.522Y-114.617
X116.522Y-117.157
X116.522Y-119.697
X116.522Y-122.237
X116.522Y-124.777
X116.522Y-127.317
X116.522Y-129.857
X116.522Y-132.398
X116.522Y-134.938
X116.522Y-137.477
X116.522Y-140.017
X116.522Y-142.558
X116.522Y-145.097
X116.522Y-147.637
X116.522Y-150.177
X125.412Y-58.737
X127.953Y-58.737
X130.493Y-58.737
X133.032Y-58.737
X141.922Y-96.837
X141.922Y-99.377
X141.922Y-101.917
X141.922Y-104.457
X141.922Y-106.997
X141.922Y-109.537
X141.922Y-112.078
X141.922Y-114.617
X141.922Y-117.157
X141.922Y-119.697
X141.922Y-122.237
X141.922Y-124.777
X141.922Y-127.317
X141.922Y-129.857
X141.922Y-132.398
X141.922Y-134.938
X141.922Y-137.477
X141.922Y-140.017
X141.922Y-142.558
X141.922Y-145.097
X141.922Y-147.637
X141.922Y-150.177
X149.733Y-106.985
X149.733Y-109.525
X149.733Y-112.065
X149.733Y-114.605
X149.733Y-117.145
X149.733Y-119.685
M30
