%TF.GenerationSoftware,KiCad,Pcbnew,10.0.1*%
%TF.CreationDate,2026-06-04T00:59:34+08:00*%
%TF.ProjectId,edge_asset_monitor,65646765-5f61-4737-9365-745f6d6f6e69,1.0*%
%TF.SameCoordinates,Original*%
%TF.FileFunction,Copper,L4,Bot*%
%TF.FilePolarity,Positive*%
%FSLAX46Y46*%
G04 Gerber Fmt 4.6, Leading zero omitted, Abs format (unit mm)*
G04 Created by KiCad (PCBNEW 10.0.1) date 2026-06-04 00:59:34*
%MOMM*%
%LPD*%
G01*
G04 APERTURE LIST*
G04 Aperture macros list*
%AMRoundRect*
0 Rectangle with rounded corners*
0 $1 Rounding radius*
0 $2 $3 $4 $5 $6 $7 $8 $9 X,Y pos of 4 corners*
0 Add a 4 corners polygon primitive as box body*
4,1,4,$2,$3,$4,$5,$6,$7,$8,$9,$2,$3,0*
0 Add four circle primitives for the rounded corners*
1,1,$1+$1,$2,$3*
1,1,$1+$1,$4,$5*
1,1,$1+$1,$6,$7*
1,1,$1+$1,$8,$9*
0 Add four rect primitives between the rounded corners*
20,1,$1+$1,$2,$3,$4,$5,0*
20,1,$1+$1,$4,$5,$6,$7,0*
20,1,$1+$1,$6,$7,$8,$9,0*
20,1,$1+$1,$8,$9,$2,$3,0*%
G04 Aperture macros list end*
%TA.AperFunction,ComponentPad*%
%ADD10R,1.700000X1.700000*%
%TD*%
%TA.AperFunction,ComponentPad*%
%ADD11C,1.700000*%
%TD*%
%TA.AperFunction,ComponentPad*%
%ADD12RoundRect,0.250000X-0.550000X0.550000X-0.550000X-0.550000X0.550000X-0.550000X0.550000X0.550000X0*%
%TD*%
%TA.AperFunction,ComponentPad*%
%ADD13C,1.600000*%
%TD*%
%TA.AperFunction,ComponentPad*%
%ADD14RoundRect,0.250000X-0.550000X-0.550000X0.550000X-0.550000X0.550000X0.550000X-0.550000X0.550000X0*%
%TD*%
G04 APERTURE END LIST*
D10*
%TO.P,J_IBT1,1,Pin_1_1*%
%TO.N,+3V3*%
X149733000Y-106984800D03*
D11*
%TO.P,J_IBT1,2,Pin_2_2*%
%TO.N,GND*%
X149733000Y-109524800D03*
%TO.P,J_IBT1,3,Pin_3_3*%
%TO.N,Net-(J_IBT1-Pin_3)*%
X149733000Y-112064800D03*
%TO.P,J_IBT1,4,Pin_4_4*%
%TO.N,Net-(J_IBT1-Pin_4)*%
X149733000Y-114604800D03*
%TO.P,J_IBT1,5,Pin_5_5*%
%TO.N,Net-(J_IBT1-Pin_5)*%
X149733000Y-117144800D03*
%TO.P,J_IBT1,6,Pin_6_6*%
%TO.N,Net-(J_IBT1-Pin_6)*%
X149733000Y-119684800D03*
%TD*%
D10*
%TO.P,U3,1,VIN_1*%
%TO.N,+3V3*%
X133032500Y-58737500D03*
D11*
%TO.P,U3,2,GND_2*%
%TO.N,GND*%
X130492500Y-58737500D03*
%TO.P,U3,3,SCL_3*%
%TO.N,Net-(U1-GPIO4)*%
X127952500Y-58737500D03*
%TO.P,U3,4,SDA_4*%
%TO.N,Net-(U1-GPIO5)*%
X125412500Y-58737500D03*
%TD*%
D12*
%TO.P,U4,1,VDD_1*%
%TO.N,+3V3*%
X143192500Y-65087500D03*
D13*
%TO.P,U4,2,VDDIO_2*%
X140652500Y-65087500D03*
%TO.P,U4,3,OCS_3*%
%TO.N,unconnected-(U4-OCS-Pad3)*%
X138112500Y-65087500D03*
%TO.P,U4,4,CSX_4*%
%TO.N,unconnected-(U4-CSX-Pad4)*%
X135572500Y-65087500D03*
%TO.P,U4,5,SDX_5*%
%TO.N,unconnected-(U4-SDX-Pad5)*%
X133032500Y-65087500D03*
%TO.P,U4,6,OSDO_6*%
%TO.N,unconnected-(U4-OSDO-Pad6)*%
X130492500Y-65087500D03*
%TO.P,U4,7*%
%TO.N,unconnected-(U4-Pad7)*%
X127952500Y-65087500D03*
%TO.P,U4,8*%
%TO.N,unconnected-(U4-Pad8)*%
X125412500Y-65087500D03*
%TO.P,U4,9*%
%TO.N,unconnected-(U4-Pad9)*%
X122872500Y-65087500D03*
%TO.P,U4,10*%
%TO.N,unconnected-(U4-Pad10)*%
X120332500Y-65087500D03*
%TO.P,U4,11*%
%TO.N,unconnected-(U4-Pad11)*%
X117792500Y-65087500D03*
%TO.P,U4,12*%
%TO.N,unconnected-(U4-Pad12)*%
X115252500Y-65087500D03*
%TO.P,U4,13,GND_13*%
%TO.N,GND*%
X115252500Y-80327500D03*
%TO.P,U4,14,INT1_14*%
%TO.N,unconnected-(U4-INT1-Pad14)*%
X117792500Y-80327500D03*
%TO.P,U4,15,INT2_15*%
%TO.N,unconnected-(U4-INT2-Pad15)*%
X120332500Y-80327500D03*
%TO.P,U4,16*%
%TO.N,unconnected-(U4-Pad16)*%
X122872500Y-80327500D03*
%TO.P,U4,17*%
%TO.N,unconnected-(U4-Pad17)*%
X125412500Y-80327500D03*
%TO.P,U4,18*%
%TO.N,unconnected-(U4-Pad18)*%
X127952500Y-80327500D03*
%TO.P,U4,19,CS_19*%
%TO.N,Net-(U1-GPIO10)*%
X130492500Y-80327500D03*
%TO.P,U4,20,SCL_20*%
%TO.N,Net-(U1-GPIO11)*%
X133032500Y-80327500D03*
%TO.P,U4,21,SDA_21*%
%TO.N,Net-(U1-GPIO12)*%
X135572500Y-80327500D03*
%TO.P,U4,22,SDO-SAO_22*%
%TO.N,Net-(U1-GPIO13)*%
X138112500Y-80327500D03*
%TO.P,U4,23*%
%TO.N,unconnected-(U4-Pad23)*%
X140652500Y-80327500D03*
%TO.P,U4,24*%
%TO.N,unconnected-(U4-Pad24)*%
X143192500Y-80327500D03*
%TD*%
D14*
%TO.P,U2,1,L/R_1*%
%TO.N,GND*%
X125417500Y-44767500D03*
D13*
%TO.P,U2,2,WS_2*%
%TO.N,Net-(U1-GPIO18)*%
X125417500Y-47307500D03*
%TO.P,U2,3,SCK_3*%
%TO.N,Net-(U1-GPIO17)*%
X125417500Y-49847500D03*
%TO.P,U2,4,SD_4*%
%TO.N,Net-(U1-GPIO16)*%
X133037500Y-49847500D03*
%TO.P,U2,5,VDD_5*%
%TO.N,+3V3*%
X133037500Y-47307500D03*
%TO.P,U2,6,GND_6*%
%TO.N,GND*%
X133037500Y-44767500D03*
%TD*%
D10*
%TO.P,U1,J1_1,3V3_J1_1*%
%TO.N,+3V3*%
X116522500Y-96837500D03*
D11*
%TO.P,U1,J1_2,3V3_J1_2*%
X116522500Y-99377500D03*
%TO.P,U1,J1_3,RST_J1_3*%
%TO.N,unconnected-(U1-RST-PadJ1_3)*%
X116522500Y-101917500D03*
%TO.P,U1,J1_4,GPIO4_J1_4*%
%TO.N,Net-(U1-GPIO4)*%
X116522500Y-104457500D03*
%TO.P,U1,J1_5,GPIO5_J1_5*%
%TO.N,Net-(U1-GPIO5)*%
X116522500Y-106997500D03*
%TO.P,U1,J1_6,GPIO6_J1_6*%
%TO.N,unconnected-(U1-GPIO6-PadJ1_6)*%
X116522500Y-109537500D03*
%TO.P,U1,J1_7,GPIO7_J1_7*%
%TO.N,unconnected-(U1-GPIO7-PadJ1_7)*%
X116522500Y-112077500D03*
%TO.P,U1,J1_8,GPIO15_J1_8*%
%TO.N,unconnected-(U1-GPIO15-PadJ1_8)*%
X116522500Y-114617500D03*
%TO.P,U1,J1_9,GPIO16_J1_9*%
%TO.N,Net-(U1-GPIO16)*%
X116522500Y-117157500D03*
%TO.P,U1,J1_10,GPIO17_J1_10*%
%TO.N,Net-(U1-GPIO17)*%
X116522500Y-119697500D03*
%TO.P,U1,J1_11,GPIO18_J1_11*%
%TO.N,Net-(U1-GPIO18)*%
X116522500Y-122237500D03*
%TO.P,U1,J1_12,GPIO8_J1_12*%
%TO.N,unconnected-(U1-GPIO8-PadJ1_12)*%
X116522500Y-124777500D03*
%TO.P,U1,J1_13,GPIO3_J1_13*%
%TO.N,unconnected-(U1-GPIO3-PadJ1_13)*%
X116522500Y-127317500D03*
%TO.P,U1,J1_14,GPIO46_J1_14*%
%TO.N,unconnected-(U1-GPIO46-PadJ1_14)*%
X116522500Y-129857500D03*
%TO.P,U1,J1_15,GPIO9_J1_15*%
%TO.N,unconnected-(U1-GPIO9-PadJ1_15)*%
X116522500Y-132397500D03*
%TO.P,U1,J1_16,GPIO10_J1_16*%
%TO.N,Net-(U1-GPIO10)*%
X116522500Y-134937500D03*
%TO.P,U1,J1_17,GPIO11_J1_17*%
%TO.N,Net-(U1-GPIO11)*%
X116522500Y-137477500D03*
%TO.P,U1,J1_18,GPIO12_J1_18*%
%TO.N,Net-(U1-GPIO12)*%
X116522500Y-140017500D03*
%TO.P,U1,J1_19,GPIO13_J1_19*%
%TO.N,Net-(U1-GPIO13)*%
X116522500Y-142557500D03*
%TO.P,U1,J1_20,GPIO14_J1_20*%
%TO.N,unconnected-(U1-GPIO14-PadJ1_20)*%
X116522500Y-145097500D03*
%TO.P,U1,J1_21,5V0_J1_21*%
%TO.N,unconnected-(U1-5V0-PadJ1_21)*%
X116522500Y-147637500D03*
%TO.P,U1,J1_22,GND_J1_22*%
%TO.N,GND*%
X116522500Y-150177500D03*
D10*
%TO.P,U1,J3_1,GND_J3_1*%
X141922500Y-96837500D03*
D11*
%TO.P,U1,J3_2,U0TXD/GPIO43_J3_2*%
%TO.N,unconnected-(U1-U0TXD{slash}GPIO43-PadJ3_2)*%
X141922500Y-99377500D03*
%TO.P,U1,J3_3,U0RXD/GPIO44_J3_3*%
%TO.N,unconnected-(U1-U0RXD{slash}GPIO44-PadJ3_3)*%
X141922500Y-101917500D03*
%TO.P,U1,J3_4,GPIO1_J3_4*%
%TO.N,unconnected-(U1-GPIO1-PadJ3_4)*%
X141922500Y-104457500D03*
%TO.P,U1,J3_5,GPIO2_J3_5*%
%TO.N,unconnected-(U1-GPIO2-PadJ3_5)*%
X141922500Y-106997500D03*
%TO.P,U1,J3_6,MTMS/GPIO42_J3_6*%
%TO.N,unconnected-(U1-MTMS{slash}GPIO42-PadJ3_6)*%
X141922500Y-109537500D03*
%TO.P,U1,J3_7,MTDI/GPIO41_J3_7*%
%TO.N,Net-(J_IBT1-Pin_3)*%
X141922500Y-112077500D03*
%TO.P,U1,J3_8,MTDO/GPIO40_J3_8*%
%TO.N,Net-(J_IBT1-Pin_4)*%
X141922500Y-114617500D03*
%TO.P,U1,J3_9,MTCK/GPIO39_J3_9*%
%TO.N,Net-(J_IBT1-Pin_5)*%
X141922500Y-117157500D03*
%TO.P,U1,J3_10,GPIO38_J3_10*%
%TO.N,Net-(J_IBT1-Pin_6)*%
X141922500Y-119697500D03*
%TO.P,U1,J3_11,GPIO37_J3_11*%
%TO.N,unconnected-(U1-GPIO37-PadJ3_11)*%
X141922500Y-122237500D03*
%TO.P,U1,J3_12,GPIO36_J3_12*%
%TO.N,unconnected-(U1-GPIO36-PadJ3_12)*%
X141922500Y-124777500D03*
%TO.P,U1,J3_13,GPIO35_J3_13*%
%TO.N,unconnected-(U1-GPIO35-PadJ3_13)*%
X141922500Y-127317500D03*
%TO.P,U1,J3_14,GPIO0_J3_14*%
%TO.N,unconnected-(U1-GPIO0-PadJ3_14)*%
X141922500Y-129857500D03*
%TO.P,U1,J3_15,GPIO45_J3_15*%
%TO.N,unconnected-(U1-GPIO45-PadJ3_15)*%
X141922500Y-132397500D03*
%TO.P,U1,J3_16,GPIO48_J3_16*%
%TO.N,unconnected-(U1-GPIO48-PadJ3_16)*%
X141922500Y-134937500D03*
%TO.P,U1,J3_17,GPIO47_J3_17*%
%TO.N,unconnected-(U1-GPIO47-PadJ3_17)*%
X141922500Y-137477500D03*
%TO.P,U1,J3_18,GPIO21_J3_18*%
%TO.N,unconnected-(U1-GPIO21-PadJ3_18)*%
X141922500Y-140017500D03*
%TO.P,U1,J3_19,USB_D+/GPIO20_J3_19*%
%TO.N,unconnected-(U1-USB_D+{slash}GPIO20-PadJ3_19)*%
X141922500Y-142557500D03*
%TO.P,U1,J3_20,USB_D-/GPIO19_J3_20*%
%TO.N,unconnected-(U1-USB_D-{slash}GPIO19-PadJ3_20)*%
X141922500Y-145097500D03*
%TO.P,U1,J3_21,GND_J3_21*%
%TO.N,GND*%
X141922500Y-147637500D03*
%TO.P,U1,J3_22,GND_J3_22*%
X141922500Y-150177500D03*
%TD*%
M02*
