%TF.GenerationSoftware,KiCad,Pcbnew,10.0.1*%
%TF.CreationDate,2026-06-04T00:59:34+08:00*%
%TF.ProjectId,edge_asset_monitor,65646765-5f61-4737-9365-745f6d6f6e69,1.0*%
%TF.SameCoordinates,Original*%
%TF.FileFunction,Legend,Bot*%
%TF.FilePolarity,Positive*%
%FSLAX46Y46*%
G04 Gerber Fmt 4.6, Leading zero omitted, Abs format (unit mm)*
G04 Created by KiCad (PCBNEW 10.0.1) date 2026-06-04 00:59:34*
%MOMM*%
%LPD*%
G01*
G04 APERTURE LIST*
%ADD10C,0.100000*%
%ADD11C,0.000000*%
G04 APERTURE END LIST*
D10*
X139195104Y-130595445D02*
X138861771Y-130595445D01*
X138718914Y-131119255D02*
X139195104Y-131119255D01*
X139195104Y-131119255D02*
X139195104Y-130119255D01*
X139195104Y-130119255D02*
X138718914Y-130119255D01*
X138290342Y-131119255D02*
X138290342Y-130119255D01*
X138290342Y-130119255D02*
X138052247Y-130119255D01*
X138052247Y-130119255D02*
X137909390Y-130166874D01*
X137909390Y-130166874D02*
X137814152Y-130262112D01*
X137814152Y-130262112D02*
X137766533Y-130357350D01*
X137766533Y-130357350D02*
X137718914Y-130547826D01*
X137718914Y-130547826D02*
X137718914Y-130690683D01*
X137718914Y-130690683D02*
X137766533Y-130881159D01*
X137766533Y-130881159D02*
X137814152Y-130976397D01*
X137814152Y-130976397D02*
X137909390Y-131071636D01*
X137909390Y-131071636D02*
X138052247Y-131119255D01*
X138052247Y-131119255D02*
X138290342Y-131119255D01*
X136766533Y-130166874D02*
X136861771Y-130119255D01*
X136861771Y-130119255D02*
X137004628Y-130119255D01*
X137004628Y-130119255D02*
X137147485Y-130166874D01*
X137147485Y-130166874D02*
X137242723Y-130262112D01*
X137242723Y-130262112D02*
X137290342Y-130357350D01*
X137290342Y-130357350D02*
X137337961Y-130547826D01*
X137337961Y-130547826D02*
X137337961Y-130690683D01*
X137337961Y-130690683D02*
X137290342Y-130881159D01*
X137290342Y-130881159D02*
X137242723Y-130976397D01*
X137242723Y-130976397D02*
X137147485Y-131071636D01*
X137147485Y-131071636D02*
X137004628Y-131119255D01*
X137004628Y-131119255D02*
X136909390Y-131119255D01*
X136909390Y-131119255D02*
X136766533Y-131071636D01*
X136766533Y-131071636D02*
X136718914Y-131024016D01*
X136718914Y-131024016D02*
X136718914Y-130690683D01*
X136718914Y-130690683D02*
X136909390Y-130690683D01*
X136290342Y-130595445D02*
X135957009Y-130595445D01*
X135814152Y-131119255D02*
X136290342Y-131119255D01*
X136290342Y-131119255D02*
X136290342Y-130119255D01*
X136290342Y-130119255D02*
X135814152Y-130119255D01*
X134671294Y-130833540D02*
X134195104Y-130833540D01*
X134766532Y-131119255D02*
X134433199Y-130119255D01*
X134433199Y-130119255D02*
X134099866Y-131119255D01*
X133814151Y-131071636D02*
X133671294Y-131119255D01*
X133671294Y-131119255D02*
X133433199Y-131119255D01*
X133433199Y-131119255D02*
X133337961Y-131071636D01*
X133337961Y-131071636D02*
X133290342Y-131024016D01*
X133290342Y-131024016D02*
X133242723Y-130928778D01*
X133242723Y-130928778D02*
X133242723Y-130833540D01*
X133242723Y-130833540D02*
X133290342Y-130738302D01*
X133290342Y-130738302D02*
X133337961Y-130690683D01*
X133337961Y-130690683D02*
X133433199Y-130643064D01*
X133433199Y-130643064D02*
X133623675Y-130595445D01*
X133623675Y-130595445D02*
X133718913Y-130547826D01*
X133718913Y-130547826D02*
X133766532Y-130500207D01*
X133766532Y-130500207D02*
X133814151Y-130404969D01*
X133814151Y-130404969D02*
X133814151Y-130309731D01*
X133814151Y-130309731D02*
X133766532Y-130214493D01*
X133766532Y-130214493D02*
X133718913Y-130166874D01*
X133718913Y-130166874D02*
X133623675Y-130119255D01*
X133623675Y-130119255D02*
X133385580Y-130119255D01*
X133385580Y-130119255D02*
X133242723Y-130166874D01*
X132861770Y-131071636D02*
X132718913Y-131119255D01*
X132718913Y-131119255D02*
X132480818Y-131119255D01*
X132480818Y-131119255D02*
X132385580Y-131071636D01*
X132385580Y-131071636D02*
X132337961Y-131024016D01*
X132337961Y-131024016D02*
X132290342Y-130928778D01*
X132290342Y-130928778D02*
X132290342Y-130833540D01*
X132290342Y-130833540D02*
X132337961Y-130738302D01*
X132337961Y-130738302D02*
X132385580Y-130690683D01*
X132385580Y-130690683D02*
X132480818Y-130643064D01*
X132480818Y-130643064D02*
X132671294Y-130595445D01*
X132671294Y-130595445D02*
X132766532Y-130547826D01*
X132766532Y-130547826D02*
X132814151Y-130500207D01*
X132814151Y-130500207D02*
X132861770Y-130404969D01*
X132861770Y-130404969D02*
X132861770Y-130309731D01*
X132861770Y-130309731D02*
X132814151Y-130214493D01*
X132814151Y-130214493D02*
X132766532Y-130166874D01*
X132766532Y-130166874D02*
X132671294Y-130119255D01*
X132671294Y-130119255D02*
X132433199Y-130119255D01*
X132433199Y-130119255D02*
X132290342Y-130166874D01*
X131861770Y-130595445D02*
X131528437Y-130595445D01*
X131385580Y-131119255D02*
X131861770Y-131119255D01*
X131861770Y-131119255D02*
X131861770Y-130119255D01*
X131861770Y-130119255D02*
X131385580Y-130119255D01*
X131099865Y-130119255D02*
X130528437Y-130119255D01*
X130814151Y-131119255D02*
X130814151Y-130119255D01*
X129433198Y-131119255D02*
X129433198Y-130119255D01*
X129433198Y-130119255D02*
X129099865Y-130833540D01*
X129099865Y-130833540D02*
X128766532Y-130119255D01*
X128766532Y-130119255D02*
X128766532Y-131119255D01*
X128099865Y-130119255D02*
X127909389Y-130119255D01*
X127909389Y-130119255D02*
X127814151Y-130166874D01*
X127814151Y-130166874D02*
X127718913Y-130262112D01*
X127718913Y-130262112D02*
X127671294Y-130452588D01*
X127671294Y-130452588D02*
X127671294Y-130785921D01*
X127671294Y-130785921D02*
X127718913Y-130976397D01*
X127718913Y-130976397D02*
X127814151Y-131071636D01*
X127814151Y-131071636D02*
X127909389Y-131119255D01*
X127909389Y-131119255D02*
X128099865Y-131119255D01*
X128099865Y-131119255D02*
X128195103Y-131071636D01*
X128195103Y-131071636D02*
X128290341Y-130976397D01*
X128290341Y-130976397D02*
X128337960Y-130785921D01*
X128337960Y-130785921D02*
X128337960Y-130452588D01*
X128337960Y-130452588D02*
X128290341Y-130262112D01*
X128290341Y-130262112D02*
X128195103Y-130166874D01*
X128195103Y-130166874D02*
X128099865Y-130119255D01*
X127242722Y-131119255D02*
X127242722Y-130119255D01*
X127242722Y-130119255D02*
X126671294Y-131119255D01*
X126671294Y-131119255D02*
X126671294Y-130119255D01*
X126195103Y-131119255D02*
X126195103Y-130119255D01*
X125861770Y-130119255D02*
X125290342Y-130119255D01*
X125576056Y-131119255D02*
X125576056Y-130119255D01*
X124766532Y-130119255D02*
X124576056Y-130119255D01*
X124576056Y-130119255D02*
X124480818Y-130166874D01*
X124480818Y-130166874D02*
X124385580Y-130262112D01*
X124385580Y-130262112D02*
X124337961Y-130452588D01*
X124337961Y-130452588D02*
X124337961Y-130785921D01*
X124337961Y-130785921D02*
X124385580Y-130976397D01*
X124385580Y-130976397D02*
X124480818Y-131071636D01*
X124480818Y-131071636D02*
X124576056Y-131119255D01*
X124576056Y-131119255D02*
X124766532Y-131119255D01*
X124766532Y-131119255D02*
X124861770Y-131071636D01*
X124861770Y-131071636D02*
X124957008Y-130976397D01*
X124957008Y-130976397D02*
X125004627Y-130785921D01*
X125004627Y-130785921D02*
X125004627Y-130452588D01*
X125004627Y-130452588D02*
X124957008Y-130262112D01*
X124957008Y-130262112D02*
X124861770Y-130166874D01*
X124861770Y-130166874D02*
X124766532Y-130119255D01*
X123337961Y-131119255D02*
X123671294Y-130643064D01*
X123909389Y-131119255D02*
X123909389Y-130119255D01*
X123909389Y-130119255D02*
X123528437Y-130119255D01*
X123528437Y-130119255D02*
X123433199Y-130166874D01*
X123433199Y-130166874D02*
X123385580Y-130214493D01*
X123385580Y-130214493D02*
X123337961Y-130309731D01*
X123337961Y-130309731D02*
X123337961Y-130452588D01*
X123337961Y-130452588D02*
X123385580Y-130547826D01*
X123385580Y-130547826D02*
X123433199Y-130595445D01*
X123433199Y-130595445D02*
X123528437Y-130643064D01*
X123528437Y-130643064D02*
X123909389Y-130643064D01*
X122242722Y-130452588D02*
X122004627Y-131119255D01*
X122004627Y-131119255D02*
X121766532Y-130452588D01*
X120861770Y-131119255D02*
X121433198Y-131119255D01*
X121147484Y-131119255D02*
X121147484Y-130119255D01*
X121147484Y-130119255D02*
X121242722Y-130262112D01*
X121242722Y-130262112D02*
X121337960Y-130357350D01*
X121337960Y-130357350D02*
X121433198Y-130404969D01*
X120433198Y-131024016D02*
X120385579Y-131071636D01*
X120385579Y-131071636D02*
X120433198Y-131119255D01*
X120433198Y-131119255D02*
X120480817Y-131071636D01*
X120480817Y-131071636D02*
X120433198Y-131024016D01*
X120433198Y-131024016D02*
X120433198Y-131119255D01*
X119766532Y-130119255D02*
X119671294Y-130119255D01*
X119671294Y-130119255D02*
X119576056Y-130166874D01*
X119576056Y-130166874D02*
X119528437Y-130214493D01*
X119528437Y-130214493D02*
X119480818Y-130309731D01*
X119480818Y-130309731D02*
X119433199Y-130500207D01*
X119433199Y-130500207D02*
X119433199Y-130738302D01*
X119433199Y-130738302D02*
X119480818Y-130928778D01*
X119480818Y-130928778D02*
X119528437Y-131024016D01*
X119528437Y-131024016D02*
X119576056Y-131071636D01*
X119576056Y-131071636D02*
X119671294Y-131119255D01*
X119671294Y-131119255D02*
X119766532Y-131119255D01*
X119766532Y-131119255D02*
X119861770Y-131071636D01*
X119861770Y-131071636D02*
X119909389Y-131024016D01*
X119909389Y-131024016D02*
X119957008Y-130928778D01*
X119957008Y-130928778D02*
X120004627Y-130738302D01*
X120004627Y-130738302D02*
X120004627Y-130500207D01*
X120004627Y-130500207D02*
X119957008Y-130309731D01*
X119957008Y-130309731D02*
X119909389Y-130214493D01*
X119909389Y-130214493D02*
X119861770Y-130166874D01*
X119861770Y-130166874D02*
X119766532Y-130119255D01*
X139195104Y-132729199D02*
X139195104Y-131729199D01*
X139195104Y-131729199D02*
X138814152Y-131729199D01*
X138814152Y-131729199D02*
X138718914Y-131776818D01*
X138718914Y-131776818D02*
X138671295Y-131824437D01*
X138671295Y-131824437D02*
X138623676Y-131919675D01*
X138623676Y-131919675D02*
X138623676Y-132062532D01*
X138623676Y-132062532D02*
X138671295Y-132157770D01*
X138671295Y-132157770D02*
X138718914Y-132205389D01*
X138718914Y-132205389D02*
X138814152Y-132253008D01*
X138814152Y-132253008D02*
X139195104Y-132253008D01*
X137766533Y-132062532D02*
X137766533Y-132729199D01*
X138195104Y-132062532D02*
X138195104Y-132586341D01*
X138195104Y-132586341D02*
X138147485Y-132681580D01*
X138147485Y-132681580D02*
X138052247Y-132729199D01*
X138052247Y-132729199D02*
X137909390Y-132729199D01*
X137909390Y-132729199D02*
X137814152Y-132681580D01*
X137814152Y-132681580D02*
X137766533Y-132633960D01*
X137290342Y-132729199D02*
X137290342Y-132062532D01*
X137290342Y-132253008D02*
X137242723Y-132157770D01*
X137242723Y-132157770D02*
X137195104Y-132110151D01*
X137195104Y-132110151D02*
X137099866Y-132062532D01*
X137099866Y-132062532D02*
X137004628Y-132062532D01*
X136671294Y-132729199D02*
X136671294Y-132062532D01*
X136671294Y-131729199D02*
X136718913Y-131776818D01*
X136718913Y-131776818D02*
X136671294Y-131824437D01*
X136671294Y-131824437D02*
X136623675Y-131776818D01*
X136623675Y-131776818D02*
X136671294Y-131729199D01*
X136671294Y-131729199D02*
X136671294Y-131824437D01*
X136337961Y-132062532D02*
X135957009Y-132062532D01*
X136195104Y-131729199D02*
X136195104Y-132586341D01*
X136195104Y-132586341D02*
X136147485Y-132681580D01*
X136147485Y-132681580D02*
X136052247Y-132729199D01*
X136052247Y-132729199D02*
X135957009Y-132729199D01*
X134861770Y-132729199D02*
X134861770Y-131729199D01*
X134861770Y-132205389D02*
X134290342Y-132205389D01*
X134290342Y-132729199D02*
X134290342Y-131729199D01*
X133671294Y-132729199D02*
X133766532Y-132681580D01*
X133766532Y-132681580D02*
X133814151Y-132633960D01*
X133814151Y-132633960D02*
X133861770Y-132538722D01*
X133861770Y-132538722D02*
X133861770Y-132253008D01*
X133861770Y-132253008D02*
X133814151Y-132157770D01*
X133814151Y-132157770D02*
X133766532Y-132110151D01*
X133766532Y-132110151D02*
X133671294Y-132062532D01*
X133671294Y-132062532D02*
X133528437Y-132062532D01*
X133528437Y-132062532D02*
X133433199Y-132110151D01*
X133433199Y-132110151D02*
X133385580Y-132157770D01*
X133385580Y-132157770D02*
X133337961Y-132253008D01*
X133337961Y-132253008D02*
X133337961Y-132538722D01*
X133337961Y-132538722D02*
X133385580Y-132633960D01*
X133385580Y-132633960D02*
X133433199Y-132681580D01*
X133433199Y-132681580D02*
X133528437Y-132729199D01*
X133528437Y-132729199D02*
X133671294Y-132729199D01*
X132909389Y-132062532D02*
X132909389Y-132729199D01*
X132909389Y-132157770D02*
X132861770Y-132110151D01*
X132861770Y-132110151D02*
X132766532Y-132062532D01*
X132766532Y-132062532D02*
X132623675Y-132062532D01*
X132623675Y-132062532D02*
X132528437Y-132110151D01*
X132528437Y-132110151D02*
X132480818Y-132205389D01*
X132480818Y-132205389D02*
X132480818Y-132729199D01*
X131576056Y-132062532D02*
X131576056Y-132872056D01*
X131576056Y-132872056D02*
X131623675Y-132967294D01*
X131623675Y-132967294D02*
X131671294Y-133014913D01*
X131671294Y-133014913D02*
X131766532Y-133062532D01*
X131766532Y-133062532D02*
X131909389Y-133062532D01*
X131909389Y-133062532D02*
X132004627Y-133014913D01*
X131576056Y-132681580D02*
X131671294Y-132729199D01*
X131671294Y-132729199D02*
X131861770Y-132729199D01*
X131861770Y-132729199D02*
X131957008Y-132681580D01*
X131957008Y-132681580D02*
X132004627Y-132633960D01*
X132004627Y-132633960D02*
X132052246Y-132538722D01*
X132052246Y-132538722D02*
X132052246Y-132253008D01*
X132052246Y-132253008D02*
X132004627Y-132157770D01*
X132004627Y-132157770D02*
X131957008Y-132110151D01*
X131957008Y-132110151D02*
X131861770Y-132062532D01*
X131861770Y-132062532D02*
X131671294Y-132062532D01*
X131671294Y-132062532D02*
X131576056Y-132110151D01*
X131099865Y-132062532D02*
X131099865Y-132919675D01*
X131099865Y-132919675D02*
X131147484Y-133014913D01*
X131147484Y-133014913D02*
X131242722Y-133062532D01*
X131242722Y-133062532D02*
X131290341Y-133062532D01*
X131099865Y-131729199D02*
X131147484Y-131776818D01*
X131147484Y-131776818D02*
X131099865Y-131824437D01*
X131099865Y-131824437D02*
X131052246Y-131776818D01*
X131052246Y-131776818D02*
X131099865Y-131729199D01*
X131099865Y-131729199D02*
X131099865Y-131824437D01*
X130623675Y-132729199D02*
X130623675Y-132062532D01*
X130623675Y-131729199D02*
X130671294Y-131776818D01*
X130671294Y-131776818D02*
X130623675Y-131824437D01*
X130623675Y-131824437D02*
X130576056Y-131776818D01*
X130576056Y-131776818D02*
X130623675Y-131729199D01*
X130623675Y-131729199D02*
X130623675Y-131824437D01*
X130147485Y-132729199D02*
X130147485Y-132062532D01*
X130147485Y-132253008D02*
X130099866Y-132157770D01*
X130099866Y-132157770D02*
X130052247Y-132110151D01*
X130052247Y-132110151D02*
X129957009Y-132062532D01*
X129957009Y-132062532D02*
X129861771Y-132062532D01*
X129099866Y-132729199D02*
X129099866Y-132205389D01*
X129099866Y-132205389D02*
X129147485Y-132110151D01*
X129147485Y-132110151D02*
X129242723Y-132062532D01*
X129242723Y-132062532D02*
X129433199Y-132062532D01*
X129433199Y-132062532D02*
X129528437Y-132110151D01*
X129099866Y-132681580D02*
X129195104Y-132729199D01*
X129195104Y-132729199D02*
X129433199Y-132729199D01*
X129433199Y-132729199D02*
X129528437Y-132681580D01*
X129528437Y-132681580D02*
X129576056Y-132586341D01*
X129576056Y-132586341D02*
X129576056Y-132491103D01*
X129576056Y-132491103D02*
X129528437Y-132395865D01*
X129528437Y-132395865D02*
X129433199Y-132348246D01*
X129433199Y-132348246D02*
X129195104Y-132348246D01*
X129195104Y-132348246D02*
X129099866Y-132300627D01*
X128623675Y-132729199D02*
X128623675Y-131729199D01*
X128528437Y-132348246D02*
X128242723Y-132729199D01*
X128242723Y-132062532D02*
X128623675Y-132443484D01*
X127385580Y-132062532D02*
X127385580Y-132729199D01*
X127814151Y-132062532D02*
X127814151Y-132586341D01*
X127814151Y-132586341D02*
X127766532Y-132681580D01*
X127766532Y-132681580D02*
X127671294Y-132729199D01*
X127671294Y-132729199D02*
X127528437Y-132729199D01*
X127528437Y-132729199D02*
X127433199Y-132681580D01*
X127433199Y-132681580D02*
X127385580Y-132633960D01*
X126766532Y-132729199D02*
X126861770Y-132681580D01*
X126861770Y-132681580D02*
X126909389Y-132586341D01*
X126909389Y-132586341D02*
X126909389Y-131729199D01*
X125766531Y-132014913D02*
X124528436Y-132014913D01*
X125671293Y-131729199D02*
X124576055Y-131729199D01*
X125576055Y-132538722D02*
X124671293Y-132538722D01*
X125576055Y-132348246D02*
X124671293Y-132348246D01*
X125576055Y-132157770D02*
X125576055Y-132538722D01*
X125385579Y-131872056D02*
X124909389Y-131872056D01*
X125385579Y-131586341D02*
X125385579Y-131872056D01*
X125385579Y-132586341D02*
X125766531Y-132729199D01*
X125147484Y-132014913D02*
X125147484Y-132538722D01*
X124909389Y-132586341D02*
X124528436Y-132729199D01*
X124861770Y-131586341D02*
X124861770Y-131872056D01*
X125576055Y-132157770D02*
X124671293Y-132157770D01*
X124671293Y-132157770D02*
X124671293Y-132538722D01*
X124290341Y-132205389D02*
X123052246Y-132205389D01*
X123671294Y-131967294D02*
X123671294Y-132729199D01*
X123671294Y-132729199D02*
X123957008Y-132729199D01*
X124147484Y-131729199D02*
X123195103Y-131729199D01*
X123195103Y-131729199D02*
X123337960Y-131824437D01*
X123337960Y-131824437D02*
X123671294Y-131967294D01*
X122814151Y-132110151D02*
X121576056Y-132110151D01*
X122766532Y-131729199D02*
X121623675Y-131729199D01*
X122671294Y-132586341D02*
X122147485Y-132586341D01*
X122671294Y-132300627D02*
X122671294Y-132681580D01*
X122242723Y-131824437D02*
X121671294Y-132014913D01*
X122099866Y-132729199D02*
X121814151Y-132729199D01*
X121814151Y-132110151D02*
X121814151Y-132729199D01*
X122671294Y-132300627D02*
X122147485Y-132300627D01*
X122147485Y-132300627D02*
X122147485Y-132586341D01*
X122195104Y-131633960D02*
X122195104Y-131729199D01*
X122195104Y-131729199D02*
X122195104Y-131824437D01*
X122195104Y-131824437D02*
X122718913Y-132014913D01*
X138909390Y-133339143D02*
X138909390Y-134053428D01*
X138909390Y-134053428D02*
X138957009Y-134196285D01*
X138957009Y-134196285D02*
X139052247Y-134291524D01*
X139052247Y-134291524D02*
X139195104Y-134339143D01*
X139195104Y-134339143D02*
X139290342Y-134339143D01*
X138433199Y-133339143D02*
X138433199Y-134148666D01*
X138433199Y-134148666D02*
X138385580Y-134243904D01*
X138385580Y-134243904D02*
X138337961Y-134291524D01*
X138337961Y-134291524D02*
X138242723Y-134339143D01*
X138242723Y-134339143D02*
X138052247Y-134339143D01*
X138052247Y-134339143D02*
X137957009Y-134291524D01*
X137957009Y-134291524D02*
X137909390Y-134243904D01*
X137909390Y-134243904D02*
X137861771Y-134148666D01*
X137861771Y-134148666D02*
X137861771Y-133339143D01*
X137385580Y-134339143D02*
X137385580Y-133339143D01*
X137385580Y-133339143D02*
X136814152Y-134339143D01*
X136814152Y-134339143D02*
X136814152Y-133339143D01*
X135623675Y-133434381D02*
X135576056Y-133386762D01*
X135576056Y-133386762D02*
X135480818Y-133339143D01*
X135480818Y-133339143D02*
X135242723Y-133339143D01*
X135242723Y-133339143D02*
X135147485Y-133386762D01*
X135147485Y-133386762D02*
X135099866Y-133434381D01*
X135099866Y-133434381D02*
X135052247Y-133529619D01*
X135052247Y-133529619D02*
X135052247Y-133624857D01*
X135052247Y-133624857D02*
X135099866Y-133767714D01*
X135099866Y-133767714D02*
X135671294Y-134339143D01*
X135671294Y-134339143D02*
X135052247Y-134339143D01*
X134433199Y-133339143D02*
X134337961Y-133339143D01*
X134337961Y-133339143D02*
X134242723Y-133386762D01*
X134242723Y-133386762D02*
X134195104Y-133434381D01*
X134195104Y-133434381D02*
X134147485Y-133529619D01*
X134147485Y-133529619D02*
X134099866Y-133720095D01*
X134099866Y-133720095D02*
X134099866Y-133958190D01*
X134099866Y-133958190D02*
X134147485Y-134148666D01*
X134147485Y-134148666D02*
X134195104Y-134243904D01*
X134195104Y-134243904D02*
X134242723Y-134291524D01*
X134242723Y-134291524D02*
X134337961Y-134339143D01*
X134337961Y-134339143D02*
X134433199Y-134339143D01*
X134433199Y-134339143D02*
X134528437Y-134291524D01*
X134528437Y-134291524D02*
X134576056Y-134243904D01*
X134576056Y-134243904D02*
X134623675Y-134148666D01*
X134623675Y-134148666D02*
X134671294Y-133958190D01*
X134671294Y-133958190D02*
X134671294Y-133720095D01*
X134671294Y-133720095D02*
X134623675Y-133529619D01*
X134623675Y-133529619D02*
X134576056Y-133434381D01*
X134576056Y-133434381D02*
X134528437Y-133386762D01*
X134528437Y-133386762D02*
X134433199Y-133339143D01*
X133718913Y-133434381D02*
X133671294Y-133386762D01*
X133671294Y-133386762D02*
X133576056Y-133339143D01*
X133576056Y-133339143D02*
X133337961Y-133339143D01*
X133337961Y-133339143D02*
X133242723Y-133386762D01*
X133242723Y-133386762D02*
X133195104Y-133434381D01*
X133195104Y-133434381D02*
X133147485Y-133529619D01*
X133147485Y-133529619D02*
X133147485Y-133624857D01*
X133147485Y-133624857D02*
X133195104Y-133767714D01*
X133195104Y-133767714D02*
X133766532Y-134339143D01*
X133766532Y-134339143D02*
X133147485Y-134339143D01*
X132290342Y-133339143D02*
X132480818Y-133339143D01*
X132480818Y-133339143D02*
X132576056Y-133386762D01*
X132576056Y-133386762D02*
X132623675Y-133434381D01*
X132623675Y-133434381D02*
X132718913Y-133577238D01*
X132718913Y-133577238D02*
X132766532Y-133767714D01*
X132766532Y-133767714D02*
X132766532Y-134148666D01*
X132766532Y-134148666D02*
X132718913Y-134243904D01*
X132718913Y-134243904D02*
X132671294Y-134291524D01*
X132671294Y-134291524D02*
X132576056Y-134339143D01*
X132576056Y-134339143D02*
X132385580Y-134339143D01*
X132385580Y-134339143D02*
X132290342Y-134291524D01*
X132290342Y-134291524D02*
X132242723Y-134243904D01*
X132242723Y-134243904D02*
X132195104Y-134148666D01*
X132195104Y-134148666D02*
X132195104Y-133910571D01*
X132195104Y-133910571D02*
X132242723Y-133815333D01*
X132242723Y-133815333D02*
X132290342Y-133767714D01*
X132290342Y-133767714D02*
X132385580Y-133720095D01*
X132385580Y-133720095D02*
X132576056Y-133720095D01*
X132576056Y-133720095D02*
X132671294Y-133767714D01*
X132671294Y-133767714D02*
X132718913Y-133815333D01*
X132718913Y-133815333D02*
X132766532Y-133910571D01*
X139195104Y-137559031D02*
X139195104Y-136559031D01*
X139195104Y-136559031D02*
X138623676Y-137559031D01*
X138623676Y-137559031D02*
X138623676Y-136559031D01*
X137718914Y-137559031D02*
X137718914Y-137035221D01*
X137718914Y-137035221D02*
X137766533Y-136939983D01*
X137766533Y-136939983D02*
X137861771Y-136892364D01*
X137861771Y-136892364D02*
X138052247Y-136892364D01*
X138052247Y-136892364D02*
X138147485Y-136939983D01*
X137718914Y-137511412D02*
X137814152Y-137559031D01*
X137814152Y-137559031D02*
X138052247Y-137559031D01*
X138052247Y-137559031D02*
X138147485Y-137511412D01*
X138147485Y-137511412D02*
X138195104Y-137416173D01*
X138195104Y-137416173D02*
X138195104Y-137320935D01*
X138195104Y-137320935D02*
X138147485Y-137225697D01*
X138147485Y-137225697D02*
X138052247Y-137178078D01*
X138052247Y-137178078D02*
X137814152Y-137178078D01*
X137814152Y-137178078D02*
X137718914Y-137130459D01*
X137385580Y-136892364D02*
X137004628Y-136892364D01*
X137242723Y-136559031D02*
X137242723Y-137416173D01*
X137242723Y-137416173D02*
X137195104Y-137511412D01*
X137195104Y-137511412D02*
X137099866Y-137559031D01*
X137099866Y-137559031D02*
X137004628Y-137559031D01*
X136671294Y-137559031D02*
X136671294Y-136892364D01*
X136671294Y-136559031D02*
X136718913Y-136606650D01*
X136718913Y-136606650D02*
X136671294Y-136654269D01*
X136671294Y-136654269D02*
X136623675Y-136606650D01*
X136623675Y-136606650D02*
X136671294Y-136559031D01*
X136671294Y-136559031D02*
X136671294Y-136654269D01*
X136052247Y-137559031D02*
X136147485Y-137511412D01*
X136147485Y-137511412D02*
X136195104Y-137463792D01*
X136195104Y-137463792D02*
X136242723Y-137368554D01*
X136242723Y-137368554D02*
X136242723Y-137082840D01*
X136242723Y-137082840D02*
X136195104Y-136987602D01*
X136195104Y-136987602D02*
X136147485Y-136939983D01*
X136147485Y-136939983D02*
X136052247Y-136892364D01*
X136052247Y-136892364D02*
X135909390Y-136892364D01*
X135909390Y-136892364D02*
X135814152Y-136939983D01*
X135814152Y-136939983D02*
X135766533Y-136987602D01*
X135766533Y-136987602D02*
X135718914Y-137082840D01*
X135718914Y-137082840D02*
X135718914Y-137368554D01*
X135718914Y-137368554D02*
X135766533Y-137463792D01*
X135766533Y-137463792D02*
X135814152Y-137511412D01*
X135814152Y-137511412D02*
X135909390Y-137559031D01*
X135909390Y-137559031D02*
X136052247Y-137559031D01*
X135290342Y-136892364D02*
X135290342Y-137559031D01*
X135290342Y-136987602D02*
X135242723Y-136939983D01*
X135242723Y-136939983D02*
X135147485Y-136892364D01*
X135147485Y-136892364D02*
X135004628Y-136892364D01*
X135004628Y-136892364D02*
X134909390Y-136939983D01*
X134909390Y-136939983D02*
X134861771Y-137035221D01*
X134861771Y-137035221D02*
X134861771Y-137559031D01*
X133957009Y-137559031D02*
X133957009Y-137035221D01*
X133957009Y-137035221D02*
X134004628Y-136939983D01*
X134004628Y-136939983D02*
X134099866Y-136892364D01*
X134099866Y-136892364D02*
X134290342Y-136892364D01*
X134290342Y-136892364D02*
X134385580Y-136939983D01*
X133957009Y-137511412D02*
X134052247Y-137559031D01*
X134052247Y-137559031D02*
X134290342Y-137559031D01*
X134290342Y-137559031D02*
X134385580Y-137511412D01*
X134385580Y-137511412D02*
X134433199Y-137416173D01*
X134433199Y-137416173D02*
X134433199Y-137320935D01*
X134433199Y-137320935D02*
X134385580Y-137225697D01*
X134385580Y-137225697D02*
X134290342Y-137178078D01*
X134290342Y-137178078D02*
X134052247Y-137178078D01*
X134052247Y-137178078D02*
X133957009Y-137130459D01*
X133337961Y-137559031D02*
X133433199Y-137511412D01*
X133433199Y-137511412D02*
X133480818Y-137416173D01*
X133480818Y-137416173D02*
X133480818Y-136559031D01*
X132337960Y-136559031D02*
X131766532Y-136559031D01*
X132052246Y-137559031D02*
X132052246Y-136559031D01*
X131004627Y-137559031D02*
X131004627Y-137035221D01*
X131004627Y-137035221D02*
X131052246Y-136939983D01*
X131052246Y-136939983D02*
X131147484Y-136892364D01*
X131147484Y-136892364D02*
X131337960Y-136892364D01*
X131337960Y-136892364D02*
X131433198Y-136939983D01*
X131004627Y-137511412D02*
X131099865Y-137559031D01*
X131099865Y-137559031D02*
X131337960Y-137559031D01*
X131337960Y-137559031D02*
X131433198Y-137511412D01*
X131433198Y-137511412D02*
X131480817Y-137416173D01*
X131480817Y-137416173D02*
X131480817Y-137320935D01*
X131480817Y-137320935D02*
X131433198Y-137225697D01*
X131433198Y-137225697D02*
X131337960Y-137178078D01*
X131337960Y-137178078D02*
X131099865Y-137178078D01*
X131099865Y-137178078D02*
X131004627Y-137130459D01*
X130528436Y-137559031D02*
X130528436Y-136892364D01*
X130528436Y-136559031D02*
X130576055Y-136606650D01*
X130576055Y-136606650D02*
X130528436Y-136654269D01*
X130528436Y-136654269D02*
X130480817Y-136606650D01*
X130480817Y-136606650D02*
X130528436Y-136559031D01*
X130528436Y-136559031D02*
X130528436Y-136654269D01*
X130052246Y-136892364D02*
X130052246Y-137892364D01*
X130052246Y-136939983D02*
X129957008Y-136892364D01*
X129957008Y-136892364D02*
X129766532Y-136892364D01*
X129766532Y-136892364D02*
X129671294Y-136939983D01*
X129671294Y-136939983D02*
X129623675Y-136987602D01*
X129623675Y-136987602D02*
X129576056Y-137082840D01*
X129576056Y-137082840D02*
X129576056Y-137368554D01*
X129576056Y-137368554D02*
X129623675Y-137463792D01*
X129623675Y-137463792D02*
X129671294Y-137511412D01*
X129671294Y-137511412D02*
X129766532Y-137559031D01*
X129766532Y-137559031D02*
X129957008Y-137559031D01*
X129957008Y-137559031D02*
X130052246Y-137511412D01*
X128766532Y-137511412D02*
X128861770Y-137559031D01*
X128861770Y-137559031D02*
X129052246Y-137559031D01*
X129052246Y-137559031D02*
X129147484Y-137511412D01*
X129147484Y-137511412D02*
X129195103Y-137416173D01*
X129195103Y-137416173D02*
X129195103Y-137035221D01*
X129195103Y-137035221D02*
X129147484Y-136939983D01*
X129147484Y-136939983D02*
X129052246Y-136892364D01*
X129052246Y-136892364D02*
X128861770Y-136892364D01*
X128861770Y-136892364D02*
X128766532Y-136939983D01*
X128766532Y-136939983D02*
X128718913Y-137035221D01*
X128718913Y-137035221D02*
X128718913Y-137130459D01*
X128718913Y-137130459D02*
X129195103Y-137225697D01*
X128290341Y-137559031D02*
X128290341Y-136892364D01*
X128290341Y-136559031D02*
X128337960Y-136606650D01*
X128337960Y-136606650D02*
X128290341Y-136654269D01*
X128290341Y-136654269D02*
X128242722Y-136606650D01*
X128242722Y-136606650D02*
X128290341Y-136559031D01*
X128290341Y-136559031D02*
X128290341Y-136654269D01*
X127052246Y-136559031D02*
X127052246Y-137368554D01*
X127052246Y-137368554D02*
X127004627Y-137463792D01*
X127004627Y-137463792D02*
X126957008Y-137511412D01*
X126957008Y-137511412D02*
X126861770Y-137559031D01*
X126861770Y-137559031D02*
X126671294Y-137559031D01*
X126671294Y-137559031D02*
X126576056Y-137511412D01*
X126576056Y-137511412D02*
X126528437Y-137463792D01*
X126528437Y-137463792D02*
X126480818Y-137368554D01*
X126480818Y-137368554D02*
X126480818Y-136559031D01*
X126004627Y-136892364D02*
X126004627Y-137559031D01*
X126004627Y-136987602D02*
X125957008Y-136939983D01*
X125957008Y-136939983D02*
X125861770Y-136892364D01*
X125861770Y-136892364D02*
X125718913Y-136892364D01*
X125718913Y-136892364D02*
X125623675Y-136939983D01*
X125623675Y-136939983D02*
X125576056Y-137035221D01*
X125576056Y-137035221D02*
X125576056Y-137559031D01*
X125099865Y-137559031D02*
X125099865Y-136892364D01*
X125099865Y-136559031D02*
X125147484Y-136606650D01*
X125147484Y-136606650D02*
X125099865Y-136654269D01*
X125099865Y-136654269D02*
X125052246Y-136606650D01*
X125052246Y-136606650D02*
X125099865Y-136559031D01*
X125099865Y-136559031D02*
X125099865Y-136654269D01*
X124718913Y-136892364D02*
X124480818Y-137559031D01*
X124480818Y-137559031D02*
X124242723Y-136892364D01*
X123480818Y-137511412D02*
X123576056Y-137559031D01*
X123576056Y-137559031D02*
X123766532Y-137559031D01*
X123766532Y-137559031D02*
X123861770Y-137511412D01*
X123861770Y-137511412D02*
X123909389Y-137416173D01*
X123909389Y-137416173D02*
X123909389Y-137035221D01*
X123909389Y-137035221D02*
X123861770Y-136939983D01*
X123861770Y-136939983D02*
X123766532Y-136892364D01*
X123766532Y-136892364D02*
X123576056Y-136892364D01*
X123576056Y-136892364D02*
X123480818Y-136939983D01*
X123480818Y-136939983D02*
X123433199Y-137035221D01*
X123433199Y-137035221D02*
X123433199Y-137130459D01*
X123433199Y-137130459D02*
X123909389Y-137225697D01*
X123004627Y-137559031D02*
X123004627Y-136892364D01*
X123004627Y-137082840D02*
X122957008Y-136987602D01*
X122957008Y-136987602D02*
X122909389Y-136939983D01*
X122909389Y-136939983D02*
X122814151Y-136892364D01*
X122814151Y-136892364D02*
X122718913Y-136892364D01*
X122433198Y-137511412D02*
X122337960Y-137559031D01*
X122337960Y-137559031D02*
X122147484Y-137559031D01*
X122147484Y-137559031D02*
X122052246Y-137511412D01*
X122052246Y-137511412D02*
X122004627Y-137416173D01*
X122004627Y-137416173D02*
X122004627Y-137368554D01*
X122004627Y-137368554D02*
X122052246Y-137273316D01*
X122052246Y-137273316D02*
X122147484Y-137225697D01*
X122147484Y-137225697D02*
X122290341Y-137225697D01*
X122290341Y-137225697D02*
X122385579Y-137178078D01*
X122385579Y-137178078D02*
X122433198Y-137082840D01*
X122433198Y-137082840D02*
X122433198Y-137035221D01*
X122433198Y-137035221D02*
X122385579Y-136939983D01*
X122385579Y-136939983D02*
X122290341Y-136892364D01*
X122290341Y-136892364D02*
X122147484Y-136892364D01*
X122147484Y-136892364D02*
X122052246Y-136939983D01*
X121576055Y-137559031D02*
X121576055Y-136892364D01*
X121576055Y-136559031D02*
X121623674Y-136606650D01*
X121623674Y-136606650D02*
X121576055Y-136654269D01*
X121576055Y-136654269D02*
X121528436Y-136606650D01*
X121528436Y-136606650D02*
X121576055Y-136559031D01*
X121576055Y-136559031D02*
X121576055Y-136654269D01*
X121242722Y-136892364D02*
X120861770Y-136892364D01*
X121099865Y-136559031D02*
X121099865Y-137416173D01*
X121099865Y-137416173D02*
X121052246Y-137511412D01*
X121052246Y-137511412D02*
X120957008Y-137559031D01*
X120957008Y-137559031D02*
X120861770Y-137559031D01*
X120623674Y-136892364D02*
X120385579Y-137559031D01*
X120147484Y-136892364D02*
X120385579Y-137559031D01*
X120385579Y-137559031D02*
X120480817Y-137797126D01*
X120480817Y-137797126D02*
X120528436Y-137844745D01*
X120528436Y-137844745D02*
X120623674Y-137892364D01*
X139052247Y-139168975D02*
X139147485Y-139121356D01*
X139147485Y-139121356D02*
X139195104Y-139073736D01*
X139195104Y-139073736D02*
X139242723Y-138978498D01*
X139242723Y-138978498D02*
X139242723Y-138692784D01*
X139242723Y-138692784D02*
X139195104Y-138597546D01*
X139195104Y-138597546D02*
X139147485Y-138549927D01*
X139147485Y-138549927D02*
X139052247Y-138502308D01*
X139052247Y-138502308D02*
X138909390Y-138502308D01*
X138909390Y-138502308D02*
X138814152Y-138549927D01*
X138814152Y-138549927D02*
X138766533Y-138597546D01*
X138766533Y-138597546D02*
X138718914Y-138692784D01*
X138718914Y-138692784D02*
X138718914Y-138978498D01*
X138718914Y-138978498D02*
X138766533Y-139073736D01*
X138766533Y-139073736D02*
X138814152Y-139121356D01*
X138814152Y-139121356D02*
X138909390Y-139168975D01*
X138909390Y-139168975D02*
X139052247Y-139168975D01*
X138433199Y-138502308D02*
X138052247Y-138502308D01*
X138290342Y-139168975D02*
X138290342Y-138311832D01*
X138290342Y-138311832D02*
X138242723Y-138216594D01*
X138242723Y-138216594D02*
X138147485Y-138168975D01*
X138147485Y-138168975D02*
X138052247Y-138168975D01*
X137099865Y-138168975D02*
X136528437Y-138168975D01*
X136814151Y-139168975D02*
X136814151Y-138168975D01*
X135814151Y-139121356D02*
X135909389Y-139168975D01*
X135909389Y-139168975D02*
X136099865Y-139168975D01*
X136099865Y-139168975D02*
X136195103Y-139121356D01*
X136195103Y-139121356D02*
X136242722Y-139026117D01*
X136242722Y-139026117D02*
X136242722Y-138645165D01*
X136242722Y-138645165D02*
X136195103Y-138549927D01*
X136195103Y-138549927D02*
X136099865Y-138502308D01*
X136099865Y-138502308D02*
X135909389Y-138502308D01*
X135909389Y-138502308D02*
X135814151Y-138549927D01*
X135814151Y-138549927D02*
X135766532Y-138645165D01*
X135766532Y-138645165D02*
X135766532Y-138740403D01*
X135766532Y-138740403D02*
X136242722Y-138835641D01*
X134909389Y-139121356D02*
X135004627Y-139168975D01*
X135004627Y-139168975D02*
X135195103Y-139168975D01*
X135195103Y-139168975D02*
X135290341Y-139121356D01*
X135290341Y-139121356D02*
X135337960Y-139073736D01*
X135337960Y-139073736D02*
X135385579Y-138978498D01*
X135385579Y-138978498D02*
X135385579Y-138692784D01*
X135385579Y-138692784D02*
X135337960Y-138597546D01*
X135337960Y-138597546D02*
X135290341Y-138549927D01*
X135290341Y-138549927D02*
X135195103Y-138502308D01*
X135195103Y-138502308D02*
X135004627Y-138502308D01*
X135004627Y-138502308D02*
X134909389Y-138549927D01*
X134480817Y-139168975D02*
X134480817Y-138168975D01*
X134052246Y-139168975D02*
X134052246Y-138645165D01*
X134052246Y-138645165D02*
X134099865Y-138549927D01*
X134099865Y-138549927D02*
X134195103Y-138502308D01*
X134195103Y-138502308D02*
X134337960Y-138502308D01*
X134337960Y-138502308D02*
X134433198Y-138549927D01*
X134433198Y-138549927D02*
X134480817Y-138597546D01*
X133576055Y-138502308D02*
X133576055Y-139168975D01*
X133576055Y-138597546D02*
X133528436Y-138549927D01*
X133528436Y-138549927D02*
X133433198Y-138502308D01*
X133433198Y-138502308D02*
X133290341Y-138502308D01*
X133290341Y-138502308D02*
X133195103Y-138549927D01*
X133195103Y-138549927D02*
X133147484Y-138645165D01*
X133147484Y-138645165D02*
X133147484Y-139168975D01*
X132528436Y-139168975D02*
X132623674Y-139121356D01*
X132623674Y-139121356D02*
X132671293Y-139073736D01*
X132671293Y-139073736D02*
X132718912Y-138978498D01*
X132718912Y-138978498D02*
X132718912Y-138692784D01*
X132718912Y-138692784D02*
X132671293Y-138597546D01*
X132671293Y-138597546D02*
X132623674Y-138549927D01*
X132623674Y-138549927D02*
X132528436Y-138502308D01*
X132528436Y-138502308D02*
X132385579Y-138502308D01*
X132385579Y-138502308D02*
X132290341Y-138549927D01*
X132290341Y-138549927D02*
X132242722Y-138597546D01*
X132242722Y-138597546D02*
X132195103Y-138692784D01*
X132195103Y-138692784D02*
X132195103Y-138978498D01*
X132195103Y-138978498D02*
X132242722Y-139073736D01*
X132242722Y-139073736D02*
X132290341Y-139121356D01*
X132290341Y-139121356D02*
X132385579Y-139168975D01*
X132385579Y-139168975D02*
X132528436Y-139168975D01*
X131623674Y-139168975D02*
X131718912Y-139121356D01*
X131718912Y-139121356D02*
X131766531Y-139026117D01*
X131766531Y-139026117D02*
X131766531Y-138168975D01*
X131099864Y-139168975D02*
X131195102Y-139121356D01*
X131195102Y-139121356D02*
X131242721Y-139073736D01*
X131242721Y-139073736D02*
X131290340Y-138978498D01*
X131290340Y-138978498D02*
X131290340Y-138692784D01*
X131290340Y-138692784D02*
X131242721Y-138597546D01*
X131242721Y-138597546D02*
X131195102Y-138549927D01*
X131195102Y-138549927D02*
X131099864Y-138502308D01*
X131099864Y-138502308D02*
X130957007Y-138502308D01*
X130957007Y-138502308D02*
X130861769Y-138549927D01*
X130861769Y-138549927D02*
X130814150Y-138597546D01*
X130814150Y-138597546D02*
X130766531Y-138692784D01*
X130766531Y-138692784D02*
X130766531Y-138978498D01*
X130766531Y-138978498D02*
X130814150Y-139073736D01*
X130814150Y-139073736D02*
X130861769Y-139121356D01*
X130861769Y-139121356D02*
X130957007Y-139168975D01*
X130957007Y-139168975D02*
X131099864Y-139168975D01*
X129909388Y-138502308D02*
X129909388Y-139311832D01*
X129909388Y-139311832D02*
X129957007Y-139407070D01*
X129957007Y-139407070D02*
X130004626Y-139454689D01*
X130004626Y-139454689D02*
X130099864Y-139502308D01*
X130099864Y-139502308D02*
X130242721Y-139502308D01*
X130242721Y-139502308D02*
X130337959Y-139454689D01*
X129909388Y-139121356D02*
X130004626Y-139168975D01*
X130004626Y-139168975D02*
X130195102Y-139168975D01*
X130195102Y-139168975D02*
X130290340Y-139121356D01*
X130290340Y-139121356D02*
X130337959Y-139073736D01*
X130337959Y-139073736D02*
X130385578Y-138978498D01*
X130385578Y-138978498D02*
X130385578Y-138692784D01*
X130385578Y-138692784D02*
X130337959Y-138597546D01*
X130337959Y-138597546D02*
X130290340Y-138549927D01*
X130290340Y-138549927D02*
X130195102Y-138502308D01*
X130195102Y-138502308D02*
X130004626Y-138502308D01*
X130004626Y-138502308D02*
X129909388Y-138549927D01*
X129528435Y-138502308D02*
X129290340Y-139168975D01*
X129052245Y-138502308D02*
X129290340Y-139168975D01*
X129290340Y-139168975D02*
X129385578Y-139407070D01*
X129385578Y-139407070D02*
X129433197Y-139454689D01*
X129433197Y-139454689D02*
X129528435Y-139502308D01*
X139337961Y-140731300D02*
X138099866Y-140731300D01*
X139337961Y-139731300D02*
X139337961Y-140778919D01*
X139195104Y-139969395D02*
X138242723Y-139969395D01*
X139099866Y-140350347D02*
X138814152Y-140350347D01*
X139099866Y-140112252D02*
X139099866Y-140350347D01*
X138718914Y-140445585D02*
X139195104Y-140493204D01*
X138671295Y-139778919D02*
X138576057Y-140445585D01*
X138480819Y-139826538D02*
X138290342Y-139826538D01*
X138480819Y-140540823D02*
X138290342Y-140588442D01*
X138433200Y-140302728D02*
X138766533Y-140588442D01*
X138385580Y-140112252D02*
X138528438Y-140445585D01*
X138290342Y-140445585D02*
X138290342Y-140588442D01*
X139337961Y-139731300D02*
X138099866Y-139731300D01*
X138099866Y-139731300D02*
X138099866Y-140778919D01*
X139099866Y-140112252D02*
X138814152Y-140112252D01*
X138814152Y-140112252D02*
X138814152Y-140350347D01*
X137861771Y-140778919D02*
X136623676Y-140778919D01*
X137814152Y-139969395D02*
X136671295Y-139969395D01*
X137576057Y-140112252D02*
X137480819Y-140636061D01*
X137242724Y-139636061D02*
X137242724Y-139969395D01*
X136909390Y-140064633D02*
X137099867Y-140778919D01*
X136385581Y-140778919D02*
X135147486Y-140778919D01*
X136385581Y-139731300D02*
X135147486Y-139731300D01*
X136337962Y-140255109D02*
X136337962Y-140397966D01*
X136290343Y-139874157D02*
X135242724Y-139874157D01*
X136242724Y-140636061D02*
X135290343Y-140636061D01*
X136195105Y-140350347D02*
X135337962Y-140350347D01*
X136195105Y-140159871D02*
X135337962Y-140159871D01*
X136195105Y-139969395D02*
X136195105Y-140159871D01*
X135957010Y-140350347D02*
X136052248Y-140493204D01*
X135766534Y-140493204D02*
X135766534Y-140778919D01*
X135766534Y-139636061D02*
X135766534Y-139874157D01*
X136337962Y-140255109D02*
X135195105Y-140255109D01*
X135195105Y-140255109D02*
X135195105Y-140397966D01*
X136290343Y-140540823D02*
X135433200Y-140493204D01*
X135433200Y-140493204D02*
X135242724Y-140540823D01*
X136195105Y-139969395D02*
X135337962Y-139969395D01*
X135337962Y-139969395D02*
X135337962Y-140159871D01*
X134861772Y-140017014D02*
X134480820Y-140017014D01*
X134480820Y-140493204D02*
X134909391Y-140588442D01*
X134480820Y-139683680D02*
X134480820Y-140778919D01*
X134147487Y-140778919D02*
X133718915Y-140778919D01*
X134147487Y-139683680D02*
X134147487Y-140731300D01*
X133861772Y-140017014D02*
X134147487Y-140159871D01*
X133671296Y-140493204D02*
X133718915Y-140778919D01*
X133433201Y-140017014D02*
X132909392Y-140017014D01*
X133147487Y-140017014D02*
X133385582Y-140445585D01*
X133147487Y-139731300D02*
X133147487Y-140778919D01*
X133004630Y-139683680D02*
X133433201Y-139731300D01*
X132814154Y-140112252D02*
X132623678Y-140207490D01*
X132766535Y-139778919D02*
X132576059Y-139826538D01*
X132385582Y-139636061D02*
X132385582Y-140778919D01*
X132242725Y-140397966D02*
X132861773Y-140493204D01*
X133147487Y-140064633D02*
X133052249Y-140207490D01*
X133052249Y-140207490D02*
X132957011Y-140302728D01*
X131957011Y-139921776D02*
X131576059Y-139921776D01*
X131909392Y-140778919D02*
X131766535Y-140778919D01*
X131718916Y-139636061D02*
X131718916Y-140778919D01*
X131528440Y-140255109D02*
X131957011Y-140350347D01*
X131480821Y-139874157D02*
X130766535Y-139874157D01*
X131147488Y-139636061D02*
X131147488Y-140159871D01*
X131385583Y-140159871D02*
X131290345Y-140397966D01*
X131290345Y-140397966D02*
X131052250Y-140636061D01*
X131052250Y-140636061D02*
X130718916Y-140778919D01*
X131480821Y-140159871D02*
X130814154Y-140159871D01*
X130814154Y-140159871D02*
X130909392Y-140350347D01*
X130909392Y-140350347D02*
X131147488Y-140588442D01*
X131147488Y-140588442D02*
X131576059Y-140778919D01*
X130433202Y-140064633D02*
X129242726Y-140064633D01*
X129861774Y-140112252D02*
X129766536Y-140255109D01*
X129766536Y-140255109D02*
X129623679Y-140493204D01*
X129623679Y-140493204D02*
X129433202Y-140683680D01*
X129433202Y-140683680D02*
X129242726Y-140778919D01*
X129861774Y-139636061D02*
X129861774Y-139921776D01*
X129861774Y-139921776D02*
X129909393Y-140159871D01*
X129909393Y-140159871D02*
X129957012Y-140302728D01*
X129957012Y-140302728D02*
X130099869Y-140540823D01*
X130099869Y-140540823D02*
X130242726Y-140683680D01*
X130242726Y-140683680D02*
X130480821Y-140778919D01*
X129004631Y-140493204D02*
X127766536Y-140493204D01*
X128957012Y-140112252D02*
X128957012Y-140302728D01*
X128861774Y-139826538D02*
X128623679Y-139826538D01*
X128861774Y-139969395D02*
X128623679Y-139969395D01*
X128861774Y-139731300D02*
X128861774Y-140112252D01*
X128623679Y-140778919D02*
X128385584Y-140778919D01*
X128623679Y-139683680D02*
X128909393Y-139683680D01*
X128480822Y-139683680D02*
X128290346Y-139778919D01*
X128480822Y-139921776D02*
X128290346Y-140017014D01*
X128385584Y-140445585D02*
X128385584Y-140778919D01*
X128337965Y-139731300D02*
X128528441Y-139826538D01*
X128337965Y-139969395D02*
X128528441Y-140017014D01*
X128147489Y-139969395D02*
X127909393Y-139969395D01*
X128147489Y-139683680D02*
X127861774Y-139683680D01*
X128957012Y-140112252D02*
X127814155Y-140112252D01*
X127814155Y-140112252D02*
X127814155Y-140302728D01*
X128766536Y-140302728D02*
X128052250Y-140302728D01*
X128052250Y-140302728D02*
X128337965Y-140397966D01*
X128147489Y-139826538D02*
X127909393Y-139778919D01*
X127909393Y-139778919D02*
X127861774Y-140112252D01*
D11*
%TO.C,G\u002A\u002A\u002A*%
G36*
X106458319Y-155076160D02*
G01*
X107730083Y-155282768D01*
X108706932Y-155716215D01*
X109551573Y-156507143D01*
X110280641Y-157480104D01*
X110917947Y-158572100D01*
X109877412Y-158572100D01*
X109123967Y-158442665D01*
X108627704Y-158027004D01*
X108570139Y-157921879D01*
X108006521Y-157418040D01*
X107121822Y-156940108D01*
X106391653Y-156693056D01*
X105406595Y-156576656D01*
X104179297Y-156692995D01*
X102499585Y-157046930D01*
X102427249Y-157063536D01*
X101857089Y-157044687D01*
X101705835Y-156549517D01*
X101882256Y-156106273D01*
X102603607Y-155611447D01*
X103722073Y-155261091D01*
X105064646Y-155075798D01*
X106458319Y-155076160D01*
G37*
G36*
X118913864Y-38453392D02*
G01*
X119778773Y-38980433D01*
X120830230Y-39572917D01*
X122045910Y-39580939D01*
X123168916Y-38957228D01*
X123897296Y-38486042D01*
X124635901Y-38339867D01*
X124775506Y-38364828D01*
X125065226Y-38505734D01*
X124939405Y-38838041D01*
X124361161Y-39520207D01*
X124217002Y-39676799D01*
X123218989Y-40649269D01*
X122166946Y-41544767D01*
X121873489Y-41754432D01*
X120862084Y-42288444D01*
X120002281Y-42504299D01*
X119828680Y-42497278D01*
X119269587Y-42308293D01*
X118768807Y-41777462D01*
X118243881Y-40792150D01*
X117612353Y-39239719D01*
X117425457Y-38668361D01*
X117530877Y-38338105D01*
X118133484Y-38274878D01*
X118913864Y-38453392D01*
G37*
G36*
X135934392Y-143226266D02*
G01*
X134686915Y-144975589D01*
X134663115Y-145009081D01*
X133523222Y-146982384D01*
X132663780Y-149335909D01*
X132028871Y-152222100D01*
X131775684Y-153293587D01*
X131248781Y-154881724D01*
X130616041Y-156367239D01*
X129531068Y-158572100D01*
X127765263Y-158572100D01*
X125999458Y-158572100D01*
X126753504Y-157513139D01*
X126790462Y-157458734D01*
X127210875Y-156658439D01*
X127771807Y-155372104D01*
X128404467Y-153765465D01*
X129040065Y-152004254D01*
X129475299Y-150797819D01*
X130509550Y-148308752D01*
X131589401Y-146169083D01*
X132653807Y-144493019D01*
X133641727Y-143394769D01*
X134153116Y-143169265D01*
X135026558Y-143112581D01*
X135934392Y-143226266D01*
G37*
G36*
X155789220Y-153642588D02*
G01*
X156439969Y-153742131D01*
X156695119Y-154041835D01*
X156739168Y-154651488D01*
X156728480Y-154999671D01*
X156571642Y-155471305D01*
X156080765Y-155731341D01*
X155071754Y-155919810D01*
X155011067Y-155929138D01*
X153547701Y-156278290D01*
X152198118Y-156806018D01*
X151157278Y-157419998D01*
X150620139Y-158027906D01*
X150523532Y-158172473D01*
X149969952Y-158460146D01*
X149218589Y-158575122D01*
X148556940Y-158496107D01*
X148272502Y-158201803D01*
X148309706Y-157940155D01*
X148685803Y-157043494D01*
X149334519Y-156032673D01*
X150091066Y-155181384D01*
X150937279Y-154574678D01*
X152781790Y-153874426D01*
X155027922Y-153633211D01*
X155789220Y-153642588D01*
G37*
G36*
X156521305Y-130442449D02*
G01*
X156706877Y-130651433D01*
X156739168Y-131003363D01*
X156638147Y-131462888D01*
X156223837Y-131760989D01*
X155273526Y-131786544D01*
X152938729Y-131984714D01*
X150276514Y-132346939D01*
X147517150Y-132834735D01*
X144890907Y-133409621D01*
X142628057Y-134033112D01*
X142203880Y-134166833D01*
X141210837Y-134452903D01*
X140702866Y-134498151D01*
X140538193Y-134286650D01*
X140575049Y-133802472D01*
X140598358Y-133682601D01*
X140883921Y-133210382D01*
X141570234Y-132805465D01*
X142804446Y-132373537D01*
X145040560Y-131764750D01*
X149167691Y-130957650D01*
X153469382Y-130475581D01*
X153714420Y-130458412D01*
X155158125Y-130367414D01*
X156049404Y-130354934D01*
X156521305Y-130442449D01*
G37*
G36*
X155416252Y-135162418D02*
G01*
X156279844Y-135367157D01*
X156658455Y-135726512D01*
X156739168Y-136434403D01*
X156713576Y-136981022D01*
X156503940Y-137328784D01*
X155945418Y-137252052D01*
X155831907Y-137222888D01*
X154981360Y-137081786D01*
X153709771Y-136934565D01*
X152246794Y-136808749D01*
X152226495Y-136807306D01*
X149029492Y-136815492D01*
X146091135Y-137353285D01*
X143157224Y-138467060D01*
X142046179Y-138983053D01*
X141183940Y-139343416D01*
X140726054Y-139436490D01*
X140545884Y-139283267D01*
X140516793Y-138904739D01*
X140609115Y-138293830D01*
X141083065Y-137663636D01*
X142098891Y-137091925D01*
X143682872Y-136467201D01*
X146619084Y-135647017D01*
X149716480Y-135132529D01*
X152730418Y-134959181D01*
X155416252Y-135162418D01*
G37*
G36*
X117844734Y-141452144D02*
G01*
X117933613Y-142226729D01*
X118079868Y-142837794D01*
X118659988Y-143049877D01*
X119060598Y-143125737D01*
X119165032Y-143408000D01*
X118611581Y-143856385D01*
X117536256Y-144333276D01*
X116149325Y-144748137D01*
X114649903Y-145029464D01*
X112554884Y-145467380D01*
X110031862Y-146298036D01*
X107414820Y-147412405D01*
X104926451Y-148715082D01*
X102789451Y-150110661D01*
X102378182Y-150417290D01*
X101891748Y-150729190D01*
X101724086Y-150633504D01*
X101705835Y-150133856D01*
X101706185Y-150121583D01*
X102029741Y-149607168D01*
X102895416Y-148852040D01*
X104209099Y-147912039D01*
X105876679Y-146843004D01*
X107804045Y-145700775D01*
X109897086Y-144541189D01*
X112061690Y-143420088D01*
X114203747Y-142393309D01*
X116229145Y-141516693D01*
X116714055Y-141331698D01*
X117484842Y-141173224D01*
X117844734Y-141452144D01*
G37*
G36*
X117884864Y-134067467D02*
G01*
X117927221Y-134678322D01*
X117787268Y-135434669D01*
X117492641Y-136047642D01*
X117119177Y-136389333D01*
X116262083Y-137061094D01*
X115076862Y-137934357D01*
X113700280Y-138906037D01*
X113562612Y-139001438D01*
X111928912Y-140154173D01*
X109989103Y-141551271D01*
X107974285Y-143025093D01*
X106115557Y-144407997D01*
X105362945Y-144973440D01*
X103975759Y-146011571D01*
X102851908Y-146847189D01*
X102091347Y-147406135D01*
X101794030Y-147614251D01*
X101740055Y-147453228D01*
X101710618Y-146842239D01*
X101785698Y-146548802D01*
X102187266Y-145972642D01*
X102988957Y-145168717D01*
X104250629Y-144078887D01*
X106032146Y-142645015D01*
X107352082Y-141607843D01*
X109581071Y-139872080D01*
X111676320Y-138259271D01*
X113567938Y-136821935D01*
X115186031Y-135612588D01*
X116460707Y-134683748D01*
X117322073Y-134087931D01*
X117700237Y-133877655D01*
X117884864Y-134067467D01*
G37*
G36*
X156739168Y-122434907D02*
G01*
X156669634Y-122866424D01*
X156346134Y-123226054D01*
X155623732Y-123558019D01*
X154357918Y-123954539D01*
X153838274Y-124096827D01*
X152194007Y-124489147D01*
X150292659Y-124884572D01*
X148448891Y-125215933D01*
X147217924Y-125417976D01*
X144655215Y-125864531D01*
X142518666Y-126284146D01*
X140614141Y-126716554D01*
X138747502Y-127201490D01*
X137611833Y-127465047D01*
X135944298Y-127733077D01*
X134514168Y-127841320D01*
X132573891Y-127852320D01*
X133854478Y-127212050D01*
X134222839Y-127036901D01*
X135546908Y-126479639D01*
X137160456Y-125868025D01*
X138829019Y-125285207D01*
X140318133Y-124814335D01*
X141393335Y-124538554D01*
X141396984Y-124537860D01*
X142158776Y-124420485D01*
X143442313Y-124250692D01*
X145069286Y-124051118D01*
X146861391Y-123844396D01*
X148508153Y-123627086D01*
X150595440Y-123274778D01*
X152517456Y-122874808D01*
X154005141Y-122478615D01*
X156739168Y-121605369D01*
X156739168Y-122434907D01*
G37*
G36*
X117899679Y-128844420D02*
G01*
X117933613Y-129242673D01*
X117849337Y-129569225D01*
X117200616Y-130398095D01*
X115929063Y-131455691D01*
X115389326Y-131865787D01*
X114050949Y-132935912D01*
X112545846Y-134190440D01*
X111108742Y-135435569D01*
X110244398Y-136199491D01*
X108538623Y-137695684D01*
X106729526Y-139271542D01*
X105087597Y-140690976D01*
X104567921Y-141136522D01*
X103370572Y-142139958D01*
X102579646Y-142742437D01*
X102106892Y-142996467D01*
X101864064Y-142954560D01*
X101762912Y-142669224D01*
X101849460Y-142017872D01*
X102503158Y-141147570D01*
X102516604Y-141135917D01*
X103121287Y-140597107D01*
X104105499Y-139704859D01*
X105335967Y-138580511D01*
X106679415Y-137345398D01*
X107942250Y-136199623D01*
X109598867Y-134739045D01*
X111179280Y-133386000D01*
X112465557Y-132329412D01*
X112833532Y-132037920D01*
X114607513Y-130643026D01*
X115916112Y-129645990D01*
X116829479Y-129007211D01*
X117417762Y-128687089D01*
X117751112Y-128646026D01*
X117899679Y-128844420D01*
G37*
G36*
X156628719Y-125676444D02*
G01*
X156739168Y-126265392D01*
X156736629Y-126386780D01*
X156506293Y-127047676D01*
X155769030Y-127374010D01*
X155013335Y-127550951D01*
X154316995Y-127738141D01*
X154244270Y-127756870D01*
X153572444Y-127882570D01*
X152383041Y-128077236D01*
X150819517Y-128317992D01*
X149025328Y-128581963D01*
X148642274Y-128637652D01*
X146803131Y-128920108D01*
X145165260Y-129194839D01*
X143894633Y-129432899D01*
X143157224Y-129605342D01*
X142950911Y-129667847D01*
X141651042Y-129938810D01*
X140810159Y-129875000D01*
X140511391Y-129480345D01*
X140656031Y-129036452D01*
X141230129Y-128621390D01*
X142327501Y-128267647D01*
X144039168Y-127935362D01*
X145106780Y-127757926D01*
X146808658Y-127466663D01*
X148272502Y-127207352D01*
X148391336Y-127185716D01*
X149767259Y-126935383D01*
X151460772Y-126627496D01*
X153132998Y-126323666D01*
X153595824Y-126237750D01*
X154913481Y-125971579D01*
X155909214Y-125738601D01*
X156396192Y-125581320D01*
X156628719Y-125676444D01*
G37*
G36*
X151706870Y-146621668D02*
G01*
X154047125Y-147106910D01*
X155228052Y-147407503D01*
X156100642Y-147684649D01*
X156549369Y-147971757D01*
X156715216Y-148366144D01*
X156739168Y-148965128D01*
X156717567Y-149517327D01*
X156545649Y-149965241D01*
X156121807Y-149958775D01*
X155703109Y-149841622D01*
X154467908Y-149569178D01*
X153027907Y-149312539D01*
X151679945Y-149121811D01*
X150720863Y-149047100D01*
X150591814Y-149053858D01*
X149631659Y-149346294D01*
X148679800Y-149937303D01*
X148594948Y-150010211D01*
X148067360Y-150580791D01*
X147653859Y-151335783D01*
X147279884Y-152446047D01*
X146870870Y-154082442D01*
X146694951Y-154840377D01*
X146362066Y-156249798D01*
X146094389Y-157351242D01*
X145937699Y-157954739D01*
X145714618Y-158300748D01*
X145056211Y-158572100D01*
X145051106Y-158572096D01*
X144677807Y-158513344D01*
X144498444Y-158232344D01*
X144479071Y-157570005D01*
X144585741Y-156367239D01*
X144805250Y-154722601D01*
X145267753Y-152401499D01*
X145853446Y-150317177D01*
X146503671Y-148704010D01*
X146648518Y-148434662D01*
X147458377Y-147377950D01*
X148507832Y-146737003D01*
X149892217Y-146491637D01*
X151706870Y-146621668D01*
G37*
G36*
X114363017Y-38294071D02*
G01*
X114851677Y-38561673D01*
X115275763Y-39208192D01*
X115666779Y-40314616D01*
X116056233Y-41961936D01*
X116475629Y-44231141D01*
X116642343Y-45167286D01*
X116978165Y-46627376D01*
X117371732Y-47478123D01*
X117903227Y-47734168D01*
X118652831Y-47410151D01*
X119700727Y-46520715D01*
X121127098Y-45080501D01*
X121780550Y-44393798D01*
X123167405Y-42905441D01*
X124490960Y-41449966D01*
X125535811Y-40262761D01*
X126466427Y-39254515D01*
X127327096Y-38524066D01*
X127882207Y-38322483D01*
X127994676Y-38437752D01*
X127859600Y-38864826D01*
X127351974Y-39650170D01*
X126436183Y-40846920D01*
X125076610Y-42508211D01*
X124783302Y-42858693D01*
X123368809Y-44517324D01*
X121947550Y-46139511D01*
X120670273Y-47555023D01*
X119687724Y-48593628D01*
X119595619Y-48686513D01*
X118424412Y-49801171D01*
X117527550Y-50450234D01*
X116851624Y-50593959D01*
X116343223Y-50192604D01*
X115948936Y-49206429D01*
X115615355Y-47595690D01*
X115289067Y-45320646D01*
X115223675Y-44831835D01*
X114849265Y-42522061D01*
X114448206Y-40811779D01*
X114032468Y-39754018D01*
X113612605Y-39021929D01*
X113405049Y-38501305D01*
X113582538Y-38305085D01*
X114158577Y-38274878D01*
X114363017Y-38294071D01*
G37*
G36*
X149725526Y-139875992D02*
G01*
X150908773Y-139990231D01*
X152429063Y-140255348D01*
X153981117Y-140619080D01*
X155242292Y-140967282D01*
X156104614Y-141262996D01*
X156549339Y-141560579D01*
X156714760Y-141956765D01*
X156739168Y-142548286D01*
X156739165Y-142559338D01*
X156691461Y-143263850D01*
X156450790Y-143553173D01*
X155869239Y-143464374D01*
X154798891Y-143034522D01*
X153399954Y-142524750D01*
X150852806Y-142039360D01*
X148386405Y-142103396D01*
X146133082Y-142706783D01*
X144225168Y-143839450D01*
X143199435Y-144804762D01*
X142403014Y-145937945D01*
X141902998Y-147295378D01*
X141643773Y-149033497D01*
X141569724Y-151308737D01*
X141557594Y-152289222D01*
X141482128Y-154068712D01*
X141352893Y-155654529D01*
X141187714Y-156790847D01*
X140805703Y-158572100D01*
X139103061Y-158572100D01*
X137400419Y-158572100D01*
X138132030Y-157072794D01*
X138350386Y-156582124D01*
X138610903Y-155742438D01*
X138776276Y-154700647D01*
X138869344Y-153289103D01*
X138912943Y-151340155D01*
X138940838Y-149830873D01*
X139014352Y-148336465D01*
X139150779Y-147258633D01*
X139373154Y-146433130D01*
X139704510Y-145695711D01*
X140805379Y-144088549D01*
X142621342Y-142393495D01*
X144810674Y-141060231D01*
X147204573Y-140187708D01*
X149634238Y-139874878D01*
X149725526Y-139875992D01*
G37*
G36*
X156638910Y-117817034D02*
G01*
X156739168Y-118341766D01*
X156598943Y-118773960D01*
X156026352Y-119184727D01*
X154887085Y-119601381D01*
X153247919Y-120091519D01*
X151197188Y-120644137D01*
X149386835Y-121031011D01*
X147566255Y-121303041D01*
X145484842Y-121511132D01*
X145215593Y-121534283D01*
X143582589Y-121706711D01*
X142106548Y-121941226D01*
X140625756Y-122279530D01*
X138978500Y-122763327D01*
X137003069Y-123434319D01*
X134537750Y-124334209D01*
X134152233Y-124473277D01*
X132244791Y-125081988D01*
X130126153Y-125662923D01*
X128187750Y-126106814D01*
X127450097Y-126257920D01*
X125814095Y-126628402D01*
X124383024Y-126996709D01*
X123401669Y-127301728D01*
X123163849Y-127383826D01*
X121782383Y-127705583D01*
X120403057Y-127841451D01*
X118815557Y-127852184D01*
X119864034Y-127284830D01*
X119895147Y-127268029D01*
X122737958Y-125962279D01*
X125982655Y-124853662D01*
X129335647Y-124042677D01*
X130770827Y-123734426D01*
X132921963Y-123194363D01*
X135189049Y-122558139D01*
X137268728Y-121907407D01*
X138092007Y-121633984D01*
X140832243Y-120765986D01*
X143079269Y-120137758D01*
X144956586Y-119720772D01*
X146587700Y-119486500D01*
X148096113Y-119406414D01*
X150352090Y-119222784D01*
X152845999Y-118739801D01*
X155086440Y-118041783D01*
X155406479Y-117918972D01*
X156242498Y-117684782D01*
X156638910Y-117817034D01*
G37*
G36*
X128552137Y-143051930D02*
G01*
X128635405Y-143184611D01*
X128541814Y-143495056D01*
X128235788Y-144051601D01*
X127681754Y-144922577D01*
X126844136Y-146176319D01*
X125687361Y-147881160D01*
X124175852Y-150105433D01*
X123335252Y-151328873D01*
X121894703Y-153344239D01*
X120661433Y-154959787D01*
X119688253Y-156107665D01*
X119027971Y-156720016D01*
X118427490Y-157089809D01*
X117455486Y-157488640D01*
X116548878Y-157489473D01*
X115584996Y-157051064D01*
X114441168Y-156132169D01*
X112994724Y-154691544D01*
X112142243Y-153803201D01*
X111205207Y-152869857D01*
X110518356Y-152299535D01*
X109941780Y-152003525D01*
X109335572Y-151893119D01*
X108559821Y-151879608D01*
X108059624Y-151905891D01*
X106306576Y-152237068D01*
X104351669Y-152895399D01*
X103125711Y-153374033D01*
X102330747Y-153612427D01*
X101918772Y-153599992D01*
X101757785Y-153360393D01*
X101752618Y-153045132D01*
X101982827Y-152699903D01*
X102562510Y-152302538D01*
X103594175Y-151784676D01*
X105180330Y-151077956D01*
X105241151Y-151051771D01*
X107125112Y-150430744D01*
X109025597Y-150121554D01*
X110735515Y-150141402D01*
X112047777Y-150507491D01*
X112588593Y-150866036D01*
X113505204Y-151592974D01*
X114514350Y-152480913D01*
X115363997Y-153213119D01*
X116187154Y-153722866D01*
X116964611Y-153884436D01*
X117770047Y-153658576D01*
X118677139Y-153006031D01*
X119759565Y-151887549D01*
X121091001Y-150263877D01*
X122745125Y-148095760D01*
X122899460Y-147890009D01*
X124217994Y-146141469D01*
X125202220Y-144874300D01*
X125930431Y-144011097D01*
X126480921Y-143474458D01*
X126931984Y-143186977D01*
X127361913Y-143071252D01*
X127849001Y-143049877D01*
X127997322Y-143046532D01*
X128327585Y-143028682D01*
X128552137Y-143051930D01*
G37*
G36*
X130577125Y-38288890D02*
G01*
X130749680Y-38434982D01*
X130527724Y-38844860D01*
X129869121Y-39645750D01*
X128588714Y-41145235D01*
X126217317Y-43970590D01*
X124068678Y-46610045D01*
X121965605Y-49283187D01*
X119730908Y-52209600D01*
X118464919Y-53872258D01*
X117282432Y-55396932D01*
X116289216Y-56648523D01*
X115562712Y-57529477D01*
X115180357Y-57942239D01*
X114763690Y-58235975D01*
X114224499Y-58316771D01*
X113674880Y-57823439D01*
X113530518Y-57527697D01*
X113377063Y-56756302D01*
X113267129Y-55493508D01*
X113195121Y-53668098D01*
X113155448Y-51208856D01*
X113122251Y-49214425D01*
X113016999Y-46665996D01*
X112847480Y-44779340D01*
X112615149Y-43575011D01*
X112418655Y-43039660D01*
X111371951Y-41345130D01*
X109854670Y-39910073D01*
X108047043Y-38918216D01*
X106468335Y-38326832D01*
X108466826Y-38300855D01*
X108514314Y-38300249D01*
X109645391Y-38319586D01*
X110391225Y-38497976D01*
X111031104Y-38962815D01*
X111844314Y-39841501D01*
X111903558Y-39909192D01*
X112791530Y-41072950D01*
X113408265Y-42285089D01*
X113799452Y-43708511D01*
X114010782Y-45506116D01*
X114087946Y-47840807D01*
X114102585Y-48755784D01*
X114161084Y-50573307D01*
X114248657Y-52226327D01*
X114352529Y-53444322D01*
X114361905Y-53522372D01*
X114520487Y-54494312D01*
X114751288Y-55112002D01*
X115103471Y-55344675D01*
X115626194Y-55161564D01*
X116368619Y-54531901D01*
X117379906Y-53424919D01*
X118709215Y-51809852D01*
X120405707Y-49655931D01*
X120891155Y-49033504D01*
X123136692Y-46171867D01*
X125004928Y-43826890D01*
X126532153Y-41956930D01*
X127754653Y-40520343D01*
X128708717Y-39475488D01*
X129430631Y-38780720D01*
X129956683Y-38394398D01*
X130323162Y-38274878D01*
X130577125Y-38288890D01*
G37*
G36*
X154341318Y-98370319D02*
G01*
X155481267Y-98864461D01*
X155590170Y-98919175D01*
X156336892Y-99391423D01*
X156657869Y-99971508D01*
X156730489Y-100956502D01*
X156739168Y-102431181D01*
X155616436Y-102109186D01*
X155594257Y-102102776D01*
X154708455Y-101771910D01*
X154134769Y-101428256D01*
X154114241Y-101407998D01*
X153490883Y-101036757D01*
X152737386Y-101082262D01*
X151781171Y-101581975D01*
X150549658Y-102573358D01*
X148970269Y-104093870D01*
X145634701Y-107161363D01*
X141257201Y-110413349D01*
X136613592Y-113086054D01*
X131799035Y-115118380D01*
X130604306Y-115542647D01*
X128520427Y-116310771D01*
X126203247Y-117190248D01*
X123802145Y-118122284D01*
X121466502Y-119048090D01*
X119345696Y-119908873D01*
X117589106Y-120645842D01*
X116346113Y-121200206D01*
X114815529Y-121972420D01*
X111803230Y-123707487D01*
X108510611Y-125846042D01*
X105060255Y-128310849D01*
X103584221Y-129378353D01*
X102577865Y-130020606D01*
X101990317Y-130264635D01*
X101764194Y-130142326D01*
X101732213Y-129896610D01*
X101821831Y-129145327D01*
X101995686Y-128916671D01*
X102694669Y-128301007D01*
X103810481Y-127449967D01*
X105228260Y-126444161D01*
X106833144Y-125364201D01*
X108510271Y-124290697D01*
X110144779Y-123304258D01*
X110409574Y-123150599D01*
X112683618Y-121866741D01*
X114854743Y-120719010D01*
X117052284Y-119649463D01*
X119405577Y-118600155D01*
X122043960Y-117513140D01*
X125096767Y-116330475D01*
X128693335Y-114994215D01*
X132116630Y-113675814D01*
X135487471Y-112183773D01*
X138435869Y-110608459D01*
X141108772Y-108852087D01*
X143653129Y-106816874D01*
X146215888Y-104405035D01*
X148943997Y-101518787D01*
X150368552Y-100000350D01*
X151519522Y-98952037D01*
X152483362Y-98364199D01*
X153382989Y-98186929D01*
X154341318Y-98370319D01*
G37*
G36*
X151755636Y-106835984D02*
G01*
X152650742Y-107057730D01*
X153014887Y-107148358D01*
X154338745Y-107346844D01*
X155486168Y-107354501D01*
X155659255Y-107334742D01*
X156400482Y-107314631D01*
X156689816Y-107595289D01*
X156739168Y-108344074D01*
X156706608Y-108912559D01*
X156422017Y-109443200D01*
X155666629Y-109715498D01*
X155306781Y-109770801D01*
X154132696Y-109808533D01*
X152858132Y-109712311D01*
X152717787Y-109693592D01*
X151775051Y-109626601D01*
X150923843Y-109737088D01*
X149927863Y-110079743D01*
X148550810Y-110709261D01*
X146950384Y-111471775D01*
X145047670Y-112367726D01*
X143333613Y-113165335D01*
X141706585Y-113916323D01*
X139771477Y-114810388D01*
X138041946Y-115610266D01*
X137961446Y-115647493D01*
X136863065Y-116145527D01*
X135851063Y-116575268D01*
X134798247Y-116981341D01*
X133577427Y-117408371D01*
X132061407Y-117900981D01*
X130122997Y-118503796D01*
X127635002Y-119261441D01*
X124641135Y-120252821D01*
X119672651Y-122320925D01*
X114919878Y-124878894D01*
X110264047Y-127993907D01*
X105586391Y-131733145D01*
X105141359Y-132116074D01*
X103850486Y-133220638D01*
X102796390Y-134113436D01*
X102077947Y-134711112D01*
X101794030Y-134930307D01*
X101738039Y-134745418D01*
X101705835Y-134112316D01*
X101773544Y-133788408D01*
X102216703Y-133087994D01*
X103124874Y-132131165D01*
X104558194Y-130849122D01*
X104870322Y-130583175D01*
X108662056Y-127533167D01*
X112342963Y-124947401D01*
X116076252Y-122737393D01*
X120025132Y-120814655D01*
X124352812Y-119090702D01*
X129222502Y-117477049D01*
X130236439Y-117153949D01*
X134002876Y-115764820D01*
X138005311Y-114034635D01*
X142023827Y-112069154D01*
X145838508Y-109974139D01*
X149229437Y-107855353D01*
X149489141Y-107680591D01*
X150429689Y-107088000D01*
X151100236Y-106826269D01*
X151755636Y-106835984D01*
G37*
G36*
X156654453Y-113008737D02*
G01*
X156739168Y-113720472D01*
X156727424Y-114079945D01*
X156609189Y-114496993D01*
X156264483Y-114787365D01*
X155574376Y-114999915D01*
X154419933Y-115183498D01*
X152682224Y-115386967D01*
X151845283Y-115492645D01*
X150073545Y-115767805D01*
X148448891Y-116074426D01*
X147594548Y-116257234D01*
X145899741Y-116620574D01*
X144391946Y-116944562D01*
X143644494Y-117112210D01*
X141595509Y-117666234D01*
X139586109Y-118382012D01*
X137298838Y-119368003D01*
X136779673Y-119588095D01*
X135158574Y-120159748D01*
X133277359Y-120708072D01*
X131445636Y-121139372D01*
X127376870Y-122112972D01*
X123543758Y-123385521D01*
X119888703Y-125005004D01*
X116312113Y-127027807D01*
X112714397Y-129510316D01*
X108995965Y-132508918D01*
X105057224Y-136080000D01*
X103993015Y-137085339D01*
X103008991Y-137983794D01*
X102379549Y-138487923D01*
X102019194Y-138652222D01*
X101842431Y-138531188D01*
X101763766Y-138179317D01*
X101789158Y-137563131D01*
X102259020Y-136815080D01*
X102364020Y-136733690D01*
X103009984Y-136176560D01*
X103951331Y-135318642D01*
X105023312Y-134309279D01*
X106383646Y-133040557D01*
X110776864Y-129355145D01*
X115259550Y-126192871D01*
X119716042Y-123637741D01*
X120198157Y-123395867D01*
X121578549Y-122731370D01*
X122840055Y-122188906D01*
X124144105Y-121713016D01*
X125652127Y-121248241D01*
X127525552Y-120739122D01*
X129925808Y-120130202D01*
X131199729Y-119806403D01*
X133106479Y-119277871D01*
X134777707Y-118731783D01*
X136502792Y-118069849D01*
X138571113Y-117193781D01*
X139452565Y-116819793D01*
X144066268Y-115159233D01*
X148581188Y-114022808D01*
X152858613Y-113446894D01*
X153349614Y-113409682D01*
X154712237Y-113269713D01*
X155760084Y-113108771D01*
X156298196Y-112954752D01*
X156372461Y-112912685D01*
X156654453Y-113008737D01*
G37*
G36*
X156739168Y-90653646D02*
G01*
X156733751Y-91307867D01*
X156653925Y-91917478D01*
X156390625Y-92061134D01*
X155834258Y-91888368D01*
X155100976Y-91669767D01*
X154238876Y-91544322D01*
X154096032Y-91556470D01*
X153193172Y-91982394D01*
X152027204Y-92981932D01*
X150642351Y-94507282D01*
X149082836Y-96510645D01*
X147392882Y-98944219D01*
X147306546Y-99074601D01*
X145264297Y-102004277D01*
X143340365Y-104405192D01*
X141401429Y-106400724D01*
X139314168Y-108114248D01*
X136945262Y-109669142D01*
X134161391Y-111188781D01*
X133731049Y-111406878D01*
X131545702Y-112484357D01*
X129656642Y-113347146D01*
X127795705Y-114112749D01*
X125694724Y-114898670D01*
X123227225Y-115802279D01*
X120383791Y-116875022D01*
X117924774Y-117839278D01*
X115993335Y-118639839D01*
X115846645Y-118703607D01*
X114134490Y-119486298D01*
X112174296Y-120437609D01*
X110114097Y-121479995D01*
X108101926Y-122535912D01*
X106285816Y-123527813D01*
X104813801Y-124378154D01*
X103833914Y-125009389D01*
X103622868Y-125161409D01*
X102624279Y-125827444D01*
X102042971Y-126054133D01*
X101772354Y-125852758D01*
X101705835Y-125234600D01*
X101772351Y-124655014D01*
X101974237Y-124352655D01*
X102029339Y-124338166D01*
X102573450Y-124083187D01*
X103575062Y-123558987D01*
X104914516Y-122829276D01*
X106472154Y-121957766D01*
X107357633Y-121464262D01*
X109395986Y-120391087D01*
X111568356Y-119341138D01*
X113982566Y-118267481D01*
X116746436Y-117123181D01*
X119967788Y-115861304D01*
X123754446Y-114434916D01*
X125338118Y-113840222D01*
X129078783Y-112358437D01*
X132262642Y-110946039D01*
X134983130Y-109532773D01*
X137333684Y-108048381D01*
X139407742Y-106422605D01*
X141298738Y-104585188D01*
X143100110Y-102465872D01*
X144905293Y-99994400D01*
X146807725Y-97100514D01*
X147076409Y-96679196D01*
X148465564Y-94587271D01*
X149754331Y-92785077D01*
X150861956Y-91381627D01*
X151707685Y-90485931D01*
X152253492Y-90019881D01*
X153129548Y-89413130D01*
X153957274Y-89139003D01*
X155024947Y-89074878D01*
X156739168Y-89074878D01*
X156739168Y-90653646D01*
G37*
G36*
X156597613Y-81922012D02*
G01*
X156729592Y-82636683D01*
X156718016Y-82861553D01*
X156570227Y-83325069D01*
X156151421Y-83749580D01*
X155335300Y-84239631D01*
X153995565Y-84899765D01*
X153264024Y-85268152D01*
X151216791Y-86530671D01*
X149566308Y-87898376D01*
X149107774Y-88394743D01*
X148026734Y-89746524D01*
X146822025Y-91428344D01*
X145626217Y-93243120D01*
X144571881Y-94993770D01*
X143791588Y-96483211D01*
X143769296Y-96531333D01*
X143398996Y-97331059D01*
X142852724Y-98511189D01*
X142240243Y-99834600D01*
X141548782Y-101159827D01*
X139834112Y-103573178D01*
X137565123Y-105860359D01*
X134691464Y-108068694D01*
X131162780Y-110245506D01*
X130820507Y-110430518D01*
X129333492Y-111132246D01*
X127299471Y-111968275D01*
X124684990Y-112951325D01*
X121456596Y-114094114D01*
X117580835Y-115409363D01*
X116212161Y-115880623D01*
X113760583Y-116782022D01*
X111318625Y-117741682D01*
X109107965Y-118671340D01*
X107350280Y-119482736D01*
X105541789Y-120357622D01*
X103968715Y-121045723D01*
X102870632Y-121407405D01*
X102175490Y-121458049D01*
X101811241Y-121213036D01*
X101705835Y-120687750D01*
X101742656Y-120312172D01*
X102080359Y-119871250D01*
X102931004Y-119615223D01*
X103527310Y-119447624D01*
X104710728Y-119012800D01*
X106191640Y-118400060D01*
X107781699Y-117684377D01*
X109037249Y-117125738D01*
X111222616Y-116240287D01*
X113533584Y-115383509D01*
X115640557Y-114681349D01*
X118180875Y-113897154D01*
X120587520Y-113143649D01*
X122517405Y-112521547D01*
X124077590Y-111993171D01*
X125375137Y-111520843D01*
X126517107Y-111066886D01*
X127610561Y-110593623D01*
X128762559Y-110063375D01*
X128816385Y-110038075D01*
X132130673Y-108323022D01*
X134844541Y-106541448D01*
X137060421Y-104587359D01*
X138880745Y-102354759D01*
X140407946Y-99737656D01*
X141744456Y-96630055D01*
X142951251Y-93861298D01*
X144688387Y-90958507D01*
X146885742Y-88270080D01*
X149661379Y-85632009D01*
X150952997Y-84589302D01*
X152568378Y-83444418D01*
X154093256Y-82519196D01*
X155384304Y-81899200D01*
X156298196Y-81669990D01*
X156597613Y-81922012D01*
G37*
G36*
X142171914Y-38409819D02*
G01*
X142255025Y-38570647D01*
X141925417Y-38875044D01*
X141112816Y-39385210D01*
X139746951Y-40163344D01*
X137279873Y-41654138D01*
X132781629Y-44989095D01*
X128602850Y-48931839D01*
X124761933Y-53459532D01*
X121277275Y-58549340D01*
X118167273Y-64178423D01*
X115450323Y-70323947D01*
X115259125Y-70806186D01*
X114504089Y-72591280D01*
X113850700Y-73880209D01*
X113216699Y-74819867D01*
X112519828Y-75557149D01*
X111642066Y-76273833D01*
X110927532Y-76597594D01*
X110226773Y-76559609D01*
X109970519Y-76486259D01*
X109084363Y-75993781D01*
X108403268Y-75139387D01*
X107916609Y-73868186D01*
X107613758Y-72125285D01*
X107484087Y-69855796D01*
X107516970Y-67004826D01*
X107701779Y-63517485D01*
X107791110Y-62078759D01*
X107918725Y-58682325D01*
X107868310Y-55890120D01*
X107619309Y-53640110D01*
X107151163Y-51870261D01*
X106443314Y-50518539D01*
X105475204Y-49522908D01*
X104226277Y-48821336D01*
X102675974Y-48351786D01*
X102000613Y-48069504D01*
X101705835Y-47440379D01*
X101768770Y-46998240D01*
X102069978Y-46785949D01*
X102752256Y-46843543D01*
X103957962Y-47152847D01*
X104191378Y-47224089D01*
X105975201Y-48161047D01*
X107361773Y-49623201D01*
X108241063Y-51498903D01*
X108312925Y-51759924D01*
X108568950Y-52983090D01*
X108739329Y-54434261D01*
X108826843Y-56208215D01*
X108834273Y-58399731D01*
X108764400Y-61103587D01*
X108620004Y-64414564D01*
X108559443Y-65755016D01*
X108489253Y-68517675D01*
X108533606Y-70679610D01*
X108702071Y-72309752D01*
X109004219Y-73477035D01*
X109449621Y-74250390D01*
X110047847Y-74698749D01*
X110300311Y-74795507D01*
X111051127Y-74824966D01*
X111792027Y-74401209D01*
X112574235Y-73468022D01*
X113448977Y-71969186D01*
X114467475Y-69848489D01*
X115526924Y-67541674D01*
X117546161Y-63387001D01*
X119483644Y-59762663D01*
X121402517Y-56566777D01*
X123365922Y-53697458D01*
X125437000Y-51052821D01*
X127678895Y-48530984D01*
X129118018Y-47057060D01*
X131279381Y-45020256D01*
X133462505Y-43147732D01*
X135584688Y-41499144D01*
X137563232Y-40134150D01*
X139315435Y-39112406D01*
X140758598Y-38493569D01*
X141810020Y-38337296D01*
X142171914Y-38409819D01*
G37*
G36*
X156711798Y-76666740D02*
G01*
X156739168Y-77183332D01*
X156738236Y-77233331D01*
X156553402Y-77782208D01*
X155957489Y-78309138D01*
X154820152Y-78932961D01*
X153051857Y-79900129D01*
X150697801Y-81433116D01*
X148278602Y-83237511D01*
X145908480Y-85212005D01*
X143701655Y-87255289D01*
X141772344Y-89266054D01*
X140234767Y-91142992D01*
X139203143Y-92784794D01*
X138558364Y-94199975D01*
X137708662Y-96762760D01*
X137161803Y-99658211D01*
X137012609Y-100438297D01*
X136180686Y-102477095D01*
X134704475Y-104450296D01*
X132563562Y-106381650D01*
X129737530Y-108294906D01*
X127937278Y-109254199D01*
X125226952Y-110411468D01*
X122213367Y-111452119D01*
X119119849Y-112300656D01*
X116169724Y-112881583D01*
X115299899Y-113027578D01*
X114099842Y-113295217D01*
X112787780Y-113681382D01*
X111185345Y-114240287D01*
X109114168Y-115026149D01*
X108486630Y-115268894D01*
X107165884Y-115775157D01*
X106138487Y-116162700D01*
X105586391Y-116362594D01*
X105364099Y-116413432D01*
X104496321Y-116511884D01*
X103381530Y-116563693D01*
X102699948Y-116567425D01*
X102023899Y-116486443D01*
X101755080Y-116205955D01*
X101707770Y-115621405D01*
X101708922Y-115462412D01*
X101772288Y-114999466D01*
X102051977Y-114755993D01*
X102711065Y-114659100D01*
X103912631Y-114635897D01*
X104416477Y-114622142D01*
X105866914Y-114450170D01*
X107473973Y-114039930D01*
X109466946Y-113337835D01*
X110068077Y-113116095D01*
X112038545Y-112469899D01*
X114073542Y-111897572D01*
X115816946Y-111502069D01*
X117707626Y-111143893D01*
X120471373Y-110568838D01*
X122714165Y-110017974D01*
X124550183Y-109458771D01*
X126093606Y-108858699D01*
X127458613Y-108185225D01*
X127488520Y-108168796D01*
X130341172Y-106407183D01*
X132514586Y-104621682D01*
X134034795Y-102780838D01*
X134927830Y-100853196D01*
X135219724Y-98807302D01*
X135359298Y-96970035D01*
X136111458Y-94094932D01*
X137461747Y-91349438D01*
X139349727Y-88878844D01*
X140506017Y-87731552D01*
X142269866Y-86154634D01*
X144340205Y-84431320D01*
X146580124Y-82666390D01*
X148852709Y-80964626D01*
X151021049Y-79430809D01*
X152948232Y-78169719D01*
X154497346Y-77286138D01*
X155213930Y-76928841D01*
X156085094Y-76533262D01*
X156539078Y-76447973D01*
X156711798Y-76666740D01*
G37*
G36*
X133524395Y-38277433D02*
G01*
X133815589Y-38347875D01*
X133812925Y-38576310D01*
X133460085Y-39042698D01*
X132700753Y-39826994D01*
X131478611Y-41009157D01*
X131392205Y-41091911D01*
X128981164Y-43522663D01*
X126654306Y-46124708D01*
X124338333Y-48993108D01*
X121959949Y-52222931D01*
X119445855Y-55909239D01*
X116722754Y-60147100D01*
X116322733Y-60782213D01*
X115327357Y-62341804D01*
X114457075Y-63677086D01*
X113794086Y-64662924D01*
X113420587Y-65174183D01*
X112755318Y-65656129D01*
X111953266Y-65753436D01*
X111356985Y-65357479D01*
X111304028Y-65083227D01*
X111244377Y-64170130D01*
X111201018Y-62727681D01*
X111175838Y-60857502D01*
X111170726Y-58661216D01*
X111187570Y-56240445D01*
X111201580Y-54885217D01*
X111212992Y-52168485D01*
X111183133Y-50024245D01*
X111098156Y-48359438D01*
X110944216Y-47081004D01*
X110707468Y-46095884D01*
X110374065Y-45311019D01*
X109930162Y-44633348D01*
X109361915Y-43969813D01*
X109245588Y-43852418D01*
X108316154Y-43161950D01*
X107102625Y-42498563D01*
X105884126Y-41999170D01*
X104939782Y-41800688D01*
X104846564Y-41796945D01*
X104046869Y-41673855D01*
X103028752Y-41431328D01*
X102672494Y-41322004D01*
X101924940Y-40915553D01*
X101705835Y-40346932D01*
X101729669Y-40114829D01*
X101921462Y-39861388D01*
X102388374Y-39796296D01*
X103228490Y-39929645D01*
X104539892Y-40271527D01*
X106420667Y-40832033D01*
X108395831Y-41595702D01*
X109945731Y-42638499D01*
X111033712Y-44025955D01*
X111779744Y-45870870D01*
X111869359Y-46190613D01*
X112059003Y-47023073D01*
X112185700Y-47940077D01*
X112254787Y-49065642D01*
X112271600Y-50523782D01*
X112241477Y-52438514D01*
X112169754Y-54933853D01*
X112150424Y-55564230D01*
X112092219Y-58392503D01*
X112101332Y-60563045D01*
X112177481Y-62060960D01*
X112320384Y-62871353D01*
X112694346Y-63851266D01*
X113741850Y-62616544D01*
X113753345Y-62602921D01*
X114287148Y-61904426D01*
X115122763Y-60734759D01*
X116179593Y-59210147D01*
X117377041Y-57446814D01*
X118634511Y-55560989D01*
X120565021Y-52711240D01*
X122656812Y-49777393D01*
X124703606Y-47056067D01*
X126658348Y-44602335D01*
X128473980Y-42471270D01*
X130103447Y-40717944D01*
X131499691Y-39397430D01*
X132615658Y-38564801D01*
X133404289Y-38275129D01*
X133524395Y-38277433D01*
G37*
G36*
X156739168Y-72215981D02*
G01*
X156493010Y-72960784D01*
X155592641Y-73712361D01*
X155407841Y-73823144D01*
X154574811Y-74345387D01*
X153297629Y-75162804D01*
X151679870Y-76208552D01*
X149825105Y-77415787D01*
X147836909Y-78717668D01*
X147279789Y-79083010D01*
X145173427Y-80455095D01*
X143129137Y-81773619D01*
X141278432Y-82954530D01*
X139752827Y-83913779D01*
X138683836Y-84567317D01*
X136841434Y-85744457D01*
X135218581Y-87045913D01*
X134019213Y-88403876D01*
X133105863Y-89951026D01*
X132413580Y-91787795D01*
X131851487Y-94077953D01*
X131475375Y-96552532D01*
X131336138Y-98952655D01*
X131267244Y-100208263D01*
X130745737Y-102468306D01*
X129746211Y-104324837D01*
X128309008Y-105688092D01*
X127123473Y-106459002D01*
X125873185Y-107203542D01*
X124724361Y-107758840D01*
X123516498Y-108178648D01*
X122089088Y-108516715D01*
X120281629Y-108826791D01*
X117933613Y-109162628D01*
X117865409Y-109172031D01*
X114976785Y-109650501D01*
X112336245Y-110238585D01*
X110172502Y-110885512D01*
X108567287Y-111432441D01*
X107181757Y-111804312D01*
X106022075Y-111943669D01*
X104864949Y-111875157D01*
X103487088Y-111623423D01*
X103268351Y-111575417D01*
X102291237Y-111295276D01*
X101825684Y-110964263D01*
X101708015Y-110476895D01*
X101717663Y-110266047D01*
X101826033Y-110003421D01*
X102154852Y-109837601D01*
X102825395Y-109744126D01*
X103958941Y-109698533D01*
X105676765Y-109676359D01*
X106279302Y-109669005D01*
X108071211Y-109607435D01*
X109417481Y-109469529D01*
X110520739Y-109226993D01*
X111583613Y-108851533D01*
X113004616Y-108404317D01*
X115281209Y-107958862D01*
X118245670Y-107589692D01*
X120204619Y-107375964D01*
X121798185Y-107144801D01*
X123030671Y-106873737D01*
X124080185Y-106522980D01*
X125124836Y-106052735D01*
X125797994Y-105689692D01*
X127593962Y-104288634D01*
X128791660Y-102570317D01*
X129356208Y-100579856D01*
X129634005Y-98199059D01*
X129978202Y-95593987D01*
X130314966Y-93488389D01*
X130663428Y-91765761D01*
X131042720Y-90309600D01*
X131209336Y-89754946D01*
X131931550Y-87671849D01*
X132693651Y-86127039D01*
X133594875Y-84987759D01*
X134734459Y-84121255D01*
X136211640Y-83394768D01*
X137950416Y-82632034D01*
X140089161Y-81578084D01*
X142335800Y-80331554D01*
X144837976Y-78809669D01*
X147743335Y-76929653D01*
X148739189Y-76275069D01*
X150566473Y-75091826D01*
X152274510Y-74006716D01*
X153707763Y-73118085D01*
X154710696Y-72524277D01*
X156739168Y-71384207D01*
X156739168Y-72215981D01*
G37*
G36*
X150918335Y-38323762D02*
G01*
X148072399Y-39296225D01*
X143945602Y-40917390D01*
X138791918Y-43588440D01*
X134006514Y-46830833D01*
X129641353Y-50603553D01*
X125748400Y-54865585D01*
X122379619Y-59575910D01*
X121624156Y-60822496D01*
X119840158Y-64254602D01*
X118405273Y-67887141D01*
X117217398Y-71965155D01*
X116944314Y-73039598D01*
X116383579Y-75079944D01*
X115869096Y-76599818D01*
X115336917Y-77718906D01*
X114723094Y-78556891D01*
X113963679Y-79233461D01*
X112994724Y-79868300D01*
X111792838Y-80371496D01*
X110272456Y-80606892D01*
X109426892Y-80550831D01*
X108532954Y-80214233D01*
X107613125Y-79436426D01*
X107115433Y-78904609D01*
X106638440Y-78257378D01*
X106270514Y-77508702D01*
X105998946Y-76572320D01*
X105811026Y-75361972D01*
X105694044Y-73791397D01*
X105635292Y-71774334D01*
X105622059Y-69224523D01*
X105641637Y-66055704D01*
X105653931Y-64572629D01*
X105665839Y-62009346D01*
X105656238Y-60016817D01*
X105620796Y-58504513D01*
X105555181Y-57381907D01*
X105455061Y-56558471D01*
X105316105Y-55943676D01*
X105133979Y-55446995D01*
X105019174Y-55199768D01*
X104212735Y-53951155D01*
X103261462Y-53084259D01*
X102323196Y-52750503D01*
X101897657Y-52577661D01*
X101705835Y-51856822D01*
X101728022Y-51568330D01*
X102079435Y-51042869D01*
X102859528Y-51075521D01*
X104069958Y-51666151D01*
X104580254Y-51990916D01*
X105117795Y-52412071D01*
X105543858Y-52914523D01*
X105873233Y-53576301D01*
X106120714Y-54475432D01*
X106301091Y-55689946D01*
X106429156Y-57297869D01*
X106519702Y-59377229D01*
X106587520Y-62006056D01*
X106647402Y-65262377D01*
X106684483Y-67206260D01*
X106764622Y-70288966D01*
X106860622Y-72821224D01*
X106970531Y-74764268D01*
X107092400Y-76079334D01*
X107224278Y-76727655D01*
X107667466Y-77510126D01*
X108792095Y-78575912D01*
X110193781Y-79035585D01*
X111769435Y-78841209D01*
X112576289Y-78480175D01*
X113336703Y-77877574D01*
X114030685Y-76974535D01*
X114698645Y-75692666D01*
X115380992Y-73953575D01*
X116118135Y-71678869D01*
X116950482Y-68790155D01*
X117003506Y-68606292D01*
X117612601Y-66919134D01*
X118517035Y-64864511D01*
X119623900Y-62631158D01*
X120840293Y-60407812D01*
X122073305Y-58383211D01*
X122739845Y-57378228D01*
X126045124Y-52968776D01*
X129645741Y-49106581D01*
X133635455Y-45709827D01*
X138108029Y-42696697D01*
X143157224Y-39985375D01*
X144370864Y-39411718D01*
X145723309Y-38832876D01*
X146783697Y-38493761D01*
X147745370Y-38336792D01*
X148801669Y-38304391D01*
X150918335Y-38323762D01*
G37*
G36*
X147612276Y-46227222D02*
G01*
X149296259Y-46538845D01*
X151872145Y-46917902D01*
X154311501Y-46925254D01*
X156255104Y-46499033D01*
X156453359Y-46474773D01*
X156674744Y-46811590D01*
X156739168Y-47736750D01*
X156739168Y-49160219D01*
X154760730Y-49407409D01*
X154522093Y-49435499D01*
X151938980Y-49520858D01*
X149574068Y-49212789D01*
X147626016Y-48535568D01*
X146743262Y-48162900D01*
X144940724Y-47841490D01*
X142878243Y-48028330D01*
X140444221Y-48726386D01*
X137126987Y-50236850D01*
X133791334Y-52414669D01*
X130440032Y-55270401D01*
X130282504Y-55420658D01*
X127474069Y-58376327D01*
X125299484Y-61303480D01*
X123706903Y-64322779D01*
X122644484Y-67554884D01*
X122060383Y-71120456D01*
X121902757Y-75140155D01*
X121906710Y-76010045D01*
X121873616Y-77630786D01*
X121761973Y-78813165D01*
X121548118Y-79743525D01*
X121208387Y-80608211D01*
X121095969Y-80843786D01*
X119685347Y-82907572D01*
X117693522Y-84609996D01*
X115157123Y-85926000D01*
X112112780Y-86830525D01*
X110943970Y-87034319D01*
X108348789Y-87125951D01*
X106142839Y-86641301D01*
X104336602Y-85583653D01*
X102940557Y-83956292D01*
X101882224Y-82252979D01*
X101805846Y-71817401D01*
X101794001Y-68877391D01*
X101804209Y-66381569D01*
X101835597Y-64409173D01*
X101887045Y-63005688D01*
X101957431Y-62216595D01*
X102045634Y-62087378D01*
X102072973Y-62175756D01*
X102166694Y-62905508D01*
X102249785Y-64192143D01*
X102317378Y-65919389D01*
X102364605Y-67970974D01*
X102386596Y-70230624D01*
X102405859Y-72529594D01*
X102480033Y-75384437D01*
X102619131Y-77685990D01*
X102834759Y-79524077D01*
X103138528Y-80988525D01*
X103542044Y-82169157D01*
X104056915Y-83155797D01*
X104135808Y-83279811D01*
X105038342Y-84373448D01*
X106146973Y-85070676D01*
X107619214Y-85439293D01*
X109612583Y-85547100D01*
X111663759Y-85415855D01*
X114342448Y-84766864D01*
X116609627Y-83598759D01*
X118418451Y-81938116D01*
X119722078Y-79811513D01*
X119762742Y-79718202D01*
X120095947Y-78830366D01*
X120339745Y-77853457D01*
X120517232Y-76633355D01*
X120651501Y-75015943D01*
X120765646Y-72847100D01*
X120840309Y-71441676D01*
X121026500Y-69154192D01*
X121263860Y-67412285D01*
X121542943Y-66295576D01*
X121856617Y-65514301D01*
X123557470Y-62141851D01*
X125733727Y-58883525D01*
X128294633Y-55821190D01*
X131149434Y-53036716D01*
X134207373Y-50611970D01*
X137377698Y-48628822D01*
X140569653Y-47169139D01*
X143692484Y-46314791D01*
X143876179Y-46283752D01*
X145179384Y-46110757D01*
X146332367Y-46088220D01*
X147612276Y-46227222D01*
G37*
G36*
X139396253Y-56860963D02*
G01*
X140471977Y-57085606D01*
X141449278Y-57625950D01*
X142479511Y-58579883D01*
X143714030Y-60045294D01*
X143745069Y-60084426D01*
X144666496Y-61160543D01*
X145541115Y-62043632D01*
X146183474Y-62545899D01*
X146993212Y-62807815D01*
X148456276Y-62914889D01*
X150161737Y-62772969D01*
X151881578Y-62404634D01*
X153387780Y-61832466D01*
X154092364Y-61488743D01*
X155193600Y-60991803D01*
X155974270Y-60689024D01*
X156275105Y-60606087D01*
X156671309Y-60662743D01*
X156679825Y-61207996D01*
X156520476Y-61593134D01*
X156019823Y-62038672D01*
X155072227Y-62548181D01*
X153564168Y-63194021D01*
X151869367Y-63855929D01*
X149758862Y-64563074D01*
X148073145Y-64918921D01*
X146696861Y-64918201D01*
X145514652Y-64555647D01*
X144411162Y-63825990D01*
X143271035Y-62723962D01*
X142967464Y-62397586D01*
X141390683Y-60759052D01*
X140125933Y-59625618D01*
X139051845Y-58967147D01*
X138047049Y-58753500D01*
X136990177Y-58954541D01*
X135759859Y-59540132D01*
X134234725Y-60480136D01*
X132899756Y-61452819D01*
X131498115Y-62853640D01*
X130378917Y-64535128D01*
X129488203Y-66602716D01*
X128772013Y-69161840D01*
X128176388Y-72317933D01*
X127935882Y-73807264D01*
X127085259Y-78641761D01*
X126229138Y-82842713D01*
X125371238Y-86395743D01*
X124515273Y-89286473D01*
X123664962Y-91500524D01*
X122824020Y-93023519D01*
X122460942Y-93429867D01*
X121261743Y-94295977D01*
X119583210Y-95144706D01*
X117575294Y-95914702D01*
X115387945Y-96544610D01*
X113171113Y-96973079D01*
X112778603Y-97015185D01*
X111152971Y-97035118D01*
X109261724Y-96896209D01*
X107420449Y-96629361D01*
X105944734Y-96265476D01*
X104393063Y-95682350D01*
X102873917Y-94897647D01*
X101991295Y-94093969D01*
X101705835Y-93243250D01*
X101742931Y-92555622D01*
X101838328Y-92249877D01*
X102089007Y-92334817D01*
X102830802Y-92638166D01*
X103866800Y-93085772D01*
X104535167Y-93360238D01*
X106499854Y-94013753D01*
X108642651Y-94559313D01*
X110691136Y-94933300D01*
X112372885Y-95072100D01*
X112582863Y-95070026D01*
X114837591Y-94818850D01*
X117105747Y-94201701D01*
X119208286Y-93294366D01*
X120966162Y-92172632D01*
X122200330Y-90912286D01*
X122871879Y-89722281D01*
X123649949Y-87876431D01*
X124423356Y-85628046D01*
X125150172Y-83134273D01*
X125788472Y-80552261D01*
X126296327Y-78039158D01*
X126631811Y-75752112D01*
X126752997Y-73848272D01*
X126753352Y-73763026D01*
X126914865Y-71685587D01*
X127323192Y-69327581D01*
X127909028Y-67017357D01*
X128603065Y-65083265D01*
X128746176Y-64773585D01*
X129941895Y-62780030D01*
X131496427Y-60916612D01*
X133282265Y-59286935D01*
X135171900Y-57994606D01*
X137037824Y-57143231D01*
X138752527Y-56836416D01*
X139396253Y-56860963D01*
G37*
G36*
X137775157Y-38283076D02*
G01*
X138011388Y-38381249D01*
X137847657Y-38649388D01*
X137221087Y-39160524D01*
X136068800Y-39987686D01*
X134618713Y-41065154D01*
X131442375Y-43793318D01*
X128242494Y-47009418D01*
X125141415Y-50585793D01*
X122261484Y-54394785D01*
X122082922Y-54652171D01*
X120944137Y-56402380D01*
X119617752Y-58586757D01*
X118203074Y-61034204D01*
X116799408Y-63573623D01*
X115506061Y-66033917D01*
X115379500Y-66280862D01*
X114499019Y-67934456D01*
X113658294Y-69413877D01*
X112947205Y-70565817D01*
X112455635Y-71236968D01*
X112017902Y-71651976D01*
X111174544Y-72036292D01*
X110417744Y-71731508D01*
X109702894Y-70729397D01*
X109531744Y-70375197D01*
X109354580Y-69857206D01*
X109242488Y-69204682D01*
X109190098Y-68303630D01*
X109192043Y-67040051D01*
X109242953Y-65299947D01*
X109337462Y-62969322D01*
X109467322Y-59676847D01*
X109549045Y-56707899D01*
X109561540Y-54295048D01*
X109497086Y-52361584D01*
X109347963Y-50830800D01*
X109106451Y-49625984D01*
X108764830Y-48670430D01*
X108315378Y-47887428D01*
X107750375Y-47200270D01*
X106529985Y-46110053D01*
X105178003Y-45436774D01*
X103442788Y-45085094D01*
X102396364Y-44910135D01*
X101852323Y-44646677D01*
X101705835Y-44222961D01*
X101705836Y-44222067D01*
X101881970Y-43773157D01*
X102466318Y-43581923D01*
X103544289Y-43641581D01*
X105201294Y-43945347D01*
X106078129Y-44202337D01*
X107805294Y-45215321D01*
X109151444Y-46785820D01*
X110061553Y-48858211D01*
X110079382Y-48919721D01*
X110277660Y-49724889D01*
X110407958Y-50599005D01*
X110474299Y-51669065D01*
X110480709Y-53062067D01*
X110431211Y-54905005D01*
X110329829Y-57324878D01*
X110224201Y-59760787D01*
X110129530Y-62458294D01*
X110089012Y-64590734D01*
X110103729Y-66237352D01*
X110174765Y-67477396D01*
X110303201Y-68390109D01*
X110490122Y-69054739D01*
X110581736Y-69280392D01*
X111009333Y-69905743D01*
X111541378Y-69886615D01*
X112292533Y-69234440D01*
X112418267Y-69094770D01*
X112758964Y-68663185D01*
X113166597Y-68056369D01*
X113694171Y-67184852D01*
X114394690Y-65959161D01*
X115321158Y-64289827D01*
X116526579Y-62087378D01*
X117137795Y-60997045D01*
X117821850Y-59838788D01*
X118336352Y-59034308D01*
X118364778Y-58993497D01*
X118808685Y-58290719D01*
X118991946Y-57874248D01*
X119120706Y-57586020D01*
X119584379Y-56812854D01*
X120304419Y-55696252D01*
X121195059Y-54362662D01*
X122170535Y-52938532D01*
X123145081Y-51550309D01*
X124032931Y-50324441D01*
X124748320Y-49387378D01*
X125108495Y-48950847D01*
X126298543Y-47612351D01*
X127768578Y-46060877D01*
X129393228Y-44419289D01*
X131047119Y-42810450D01*
X132604879Y-41357223D01*
X133941133Y-40182471D01*
X134930508Y-39409057D01*
X135631000Y-38977775D01*
X136716239Y-38472006D01*
X137543473Y-38274878D01*
X137775157Y-38283076D01*
G37*
G36*
X156647853Y-67676297D02*
G01*
X156739168Y-68237392D01*
X156583176Y-68653193D01*
X155870719Y-69307306D01*
X154534307Y-70120408D01*
X154179196Y-70316764D01*
X152894915Y-71049891D01*
X151249533Y-72011314D01*
X149417322Y-73098668D01*
X147572552Y-74209591D01*
X146718499Y-74720923D01*
X145001904Y-75707173D01*
X143454157Y-76544499D01*
X142217927Y-77157119D01*
X141435880Y-77469251D01*
X140554706Y-77615226D01*
X138966574Y-77678985D01*
X137091033Y-77593798D01*
X136491627Y-77544725D01*
X135125947Y-77479273D01*
X134214140Y-77613366D01*
X133570188Y-78051256D01*
X133008070Y-78897195D01*
X132341766Y-80255433D01*
X131781662Y-81502782D01*
X130741101Y-84247672D01*
X129816212Y-87345981D01*
X128974058Y-90915019D01*
X128181701Y-95072100D01*
X127938427Y-96449268D01*
X127560268Y-98422775D01*
X127219258Y-99906556D01*
X126878202Y-101034553D01*
X126499907Y-101940709D01*
X126047179Y-102758967D01*
X125368160Y-103539321D01*
X124060943Y-104430159D01*
X122514315Y-105062683D01*
X120991171Y-105304535D01*
X120600195Y-105325426D01*
X119433637Y-105457202D01*
X117792830Y-105690796D01*
X115817946Y-106003607D01*
X113649157Y-106373030D01*
X111426637Y-106776463D01*
X109290557Y-107191301D01*
X108287115Y-107382952D01*
X106294103Y-107662118D01*
X104620925Y-107711852D01*
X103028752Y-107545670D01*
X102332320Y-107393200D01*
X101830538Y-107073426D01*
X101705835Y-106491219D01*
X101706098Y-106421028D01*
X101750577Y-106053742D01*
X101965276Y-105826684D01*
X102484028Y-105704786D01*
X103440668Y-105652981D01*
X104969030Y-105636203D01*
X105277337Y-105632479D01*
X107243967Y-105545419D01*
X109302519Y-105369840D01*
X111054446Y-105138346D01*
X112004995Y-104980761D01*
X113873617Y-104682184D01*
X115949564Y-104360427D01*
X117933613Y-104062296D01*
X119381215Y-103830071D01*
X121009416Y-103523366D01*
X122327047Y-103225557D01*
X123139500Y-102977208D01*
X123179725Y-102960025D01*
X123828030Y-102632883D01*
X124368791Y-102208678D01*
X124837175Y-101602449D01*
X125268352Y-100729232D01*
X125697492Y-99504066D01*
X126159762Y-97841986D01*
X126690332Y-95658031D01*
X127324371Y-92867239D01*
X127761046Y-90940140D01*
X128692961Y-87045613D01*
X129558734Y-83764270D01*
X130377083Y-81036285D01*
X131166726Y-78801831D01*
X131946381Y-77001084D01*
X132734764Y-75574215D01*
X132800645Y-75471378D01*
X133774753Y-74250183D01*
X134767933Y-73685026D01*
X135918032Y-73740354D01*
X137362900Y-74380616D01*
X137596312Y-74508313D01*
X139174062Y-75143533D01*
X140719138Y-75288376D01*
X142404009Y-74935407D01*
X144401143Y-74077190D01*
X145839683Y-73323142D01*
X147418371Y-72444786D01*
X148713864Y-71674156D01*
X148793243Y-71624572D01*
X149828895Y-71010201D01*
X151132848Y-70277630D01*
X152557998Y-69504393D01*
X153957238Y-68768022D01*
X155183465Y-68146050D01*
X156089571Y-67716009D01*
X156528453Y-67555433D01*
X156647853Y-67676297D01*
G37*
G36*
X142076061Y-51049620D02*
G01*
X143450611Y-51545558D01*
X145055693Y-52460889D01*
X146742604Y-53718063D01*
X147561633Y-54335278D01*
X148805672Y-55095401D01*
X149868231Y-55560628D01*
X150206295Y-55652675D01*
X150913501Y-55769978D01*
X151691458Y-55751615D01*
X152689724Y-55575451D01*
X154057858Y-55219352D01*
X155945419Y-54661181D01*
X155954374Y-54658470D01*
X156474670Y-54575283D01*
X156694119Y-54866240D01*
X156739168Y-55696233D01*
X156714833Y-56285661D01*
X156522201Y-56830961D01*
X156054433Y-56972100D01*
X155651219Y-57021583D01*
X155181080Y-57277289D01*
X154993633Y-57440234D01*
X154200183Y-57738982D01*
X153025057Y-57981505D01*
X151683353Y-58138270D01*
X150390174Y-58179747D01*
X149360619Y-58076402D01*
X149226719Y-58044231D01*
X147580867Y-57363980D01*
X146022859Y-56275404D01*
X144861467Y-54990301D01*
X144646007Y-54692707D01*
X143403152Y-53672023D01*
X141767131Y-53169852D01*
X139822563Y-53200427D01*
X137654066Y-53777983D01*
X136923779Y-54115215D01*
X135549661Y-54910966D01*
X133995660Y-55938005D01*
X132462134Y-57055035D01*
X131149440Y-58120760D01*
X130257936Y-58993883D01*
X129620408Y-59757713D01*
X128184325Y-61570272D01*
X127101647Y-63161216D01*
X126314966Y-64685065D01*
X125766873Y-66296336D01*
X125399963Y-68149549D01*
X125156826Y-70399224D01*
X124980055Y-73199878D01*
X124941054Y-73896868D01*
X124581638Y-77929042D01*
X124010494Y-81329038D01*
X123203003Y-84139326D01*
X122134544Y-86402376D01*
X120780495Y-88160656D01*
X119116238Y-89456638D01*
X117117150Y-90332790D01*
X114758613Y-90831581D01*
X114487939Y-90862353D01*
X112945149Y-90953461D01*
X111082198Y-90965855D01*
X109104049Y-90908165D01*
X107215667Y-90789019D01*
X105622015Y-90617046D01*
X104528057Y-90400875D01*
X103562692Y-90070254D01*
X102456111Y-89473785D01*
X101874656Y-88726334D01*
X101705835Y-87721087D01*
X101706204Y-87491488D01*
X101738890Y-86820583D01*
X101886219Y-86752615D01*
X102234411Y-87203090D01*
X102524287Y-87552046D01*
X103634698Y-88313948D01*
X105276374Y-88842900D01*
X107498156Y-89151229D01*
X110348891Y-89251266D01*
X111163236Y-89244719D01*
X113275123Y-89162431D01*
X115032732Y-88997207D01*
X116261464Y-88763454D01*
X117694939Y-88144749D01*
X119370758Y-86979495D01*
X120816708Y-85530914D01*
X121799865Y-83999366D01*
X122017572Y-83505392D01*
X122504157Y-82293263D01*
X122862317Y-81142160D01*
X123119147Y-79898773D01*
X123301741Y-78409794D01*
X123437193Y-76521914D01*
X123552599Y-74081822D01*
X123584299Y-73342589D01*
X123703185Y-71094507D01*
X123843236Y-69374880D01*
X124021786Y-68045197D01*
X124256165Y-66966949D01*
X124563705Y-66001627D01*
X124655468Y-65755633D01*
X126379201Y-62191325D01*
X128693943Y-58962251D01*
X131545360Y-56123098D01*
X134879117Y-53728554D01*
X138640880Y-51833303D01*
X139620681Y-51463508D01*
X140744478Y-51119354D01*
X141498571Y-50983251D01*
X142076061Y-51049620D01*
G37*
G36*
X156660105Y-40693961D02*
G01*
X156739168Y-41415798D01*
X156739102Y-41434568D01*
X156632533Y-42028309D01*
X156263348Y-42475391D01*
X155542982Y-42802535D01*
X154382873Y-43036458D01*
X152694456Y-43203880D01*
X150389168Y-43331519D01*
X149814847Y-43359523D01*
X147430988Y-43557503D01*
X145419614Y-43893980D01*
X143510002Y-44411453D01*
X141219016Y-45273924D01*
X137631397Y-47114526D01*
X134107726Y-49474318D01*
X130754122Y-52252930D01*
X127676701Y-55349994D01*
X124981581Y-58665139D01*
X122774879Y-62097996D01*
X121162714Y-65548198D01*
X120844905Y-66421787D01*
X120283323Y-68181585D01*
X119887315Y-69874494D01*
X119603042Y-71757991D01*
X119376664Y-74089555D01*
X119298631Y-74915260D01*
X118865154Y-77447700D01*
X118135260Y-79442564D01*
X117040637Y-81006226D01*
X115512972Y-82245061D01*
X113483953Y-83265440D01*
X113427990Y-83288317D01*
X111069893Y-83983088D01*
X108990668Y-84031168D01*
X107178168Y-83428575D01*
X105620246Y-82171324D01*
X104304753Y-80255433D01*
X104130267Y-79888601D01*
X103967078Y-79388127D01*
X103844535Y-78728015D01*
X103756801Y-77817281D01*
X103698042Y-76564944D01*
X103662421Y-74880021D01*
X103644102Y-72671530D01*
X103637251Y-69848489D01*
X103636709Y-69402030D01*
X103625831Y-66602228D01*
X103599133Y-64406883D01*
X103551687Y-62727406D01*
X103478566Y-61475210D01*
X103374841Y-60561706D01*
X103235586Y-59898304D01*
X103055872Y-59396416D01*
X102948257Y-59165791D01*
X102480426Y-58333791D01*
X102094608Y-57876290D01*
X101824779Y-57413704D01*
X101705835Y-56586090D01*
X101732548Y-55987563D01*
X101927351Y-55727690D01*
X102444574Y-55931525D01*
X102727559Y-56151480D01*
X103355967Y-56935060D01*
X103937200Y-57972410D01*
X104011535Y-58137266D01*
X104223675Y-58668909D01*
X104386944Y-59247138D01*
X104507973Y-59966091D01*
X104593391Y-60919906D01*
X104649831Y-62202721D01*
X104683921Y-63908674D01*
X104702294Y-66131902D01*
X104711580Y-68966544D01*
X104715962Y-70447139D01*
X104733044Y-73030552D01*
X104765280Y-75041107D01*
X104817918Y-76568236D01*
X104896206Y-77701373D01*
X105005393Y-78529948D01*
X105150729Y-79143395D01*
X105337460Y-79631145D01*
X105597782Y-80125497D01*
X106747976Y-81438217D01*
X108252589Y-82248692D01*
X109995513Y-82549135D01*
X111860644Y-82331758D01*
X113731872Y-81588770D01*
X115493094Y-80312385D01*
X117267166Y-78667933D01*
X117773195Y-75140155D01*
X118235870Y-72301045D01*
X119070750Y-68599059D01*
X120150865Y-65310997D01*
X121544753Y-62270478D01*
X123320955Y-59311121D01*
X125548010Y-56266544D01*
X127026753Y-54496353D01*
X130304452Y-51176818D01*
X133902048Y-48233819D01*
X137720332Y-45728690D01*
X141660096Y-43722769D01*
X145622130Y-42277389D01*
X149507224Y-41453888D01*
X150597829Y-41312518D01*
X152660884Y-41039523D01*
X154171106Y-40829371D01*
X155231587Y-40667412D01*
X155945419Y-40538996D01*
X156315331Y-40491664D01*
X156660105Y-40693961D01*
G37*
G36*
X137254634Y-63710317D02*
G01*
X137873984Y-63880666D01*
X138521688Y-64280241D01*
X139350054Y-65003356D01*
X140511391Y-66144322D01*
X141492943Y-67111452D01*
X142384970Y-67910546D01*
X143064830Y-68364260D01*
X143680677Y-68567149D01*
X144380665Y-68613766D01*
X145181230Y-68522053D01*
X146611263Y-68135333D01*
X148175473Y-67518135D01*
X149266060Y-67026764D01*
X150798171Y-66355894D01*
X152390896Y-65674864D01*
X153902978Y-65042599D01*
X155193163Y-64518025D01*
X156120192Y-64160069D01*
X156542810Y-64027655D01*
X156653419Y-64145973D01*
X156739168Y-64704033D01*
X156684090Y-64972471D01*
X156177468Y-65491432D01*
X155063474Y-66012465D01*
X154213706Y-66363502D01*
X152831591Y-66983395D01*
X151196275Y-67750733D01*
X149507224Y-68573573D01*
X149237635Y-68707305D01*
X147584361Y-69503183D01*
X146349208Y-70026625D01*
X145354696Y-70334232D01*
X144423347Y-70482602D01*
X143377681Y-70528336D01*
X141128694Y-70554044D01*
X139231011Y-68466776D01*
X138518480Y-67706792D01*
X137638989Y-66900247D01*
X136938240Y-66492401D01*
X136269005Y-66379507D01*
X135777336Y-66436883D01*
X134564754Y-67052272D01*
X133394799Y-68301510D01*
X132320583Y-70134093D01*
X132134063Y-70555807D01*
X131601934Y-71976363D01*
X130967983Y-73897311D01*
X130271362Y-76187380D01*
X129551224Y-78715299D01*
X128846722Y-81349796D01*
X128197008Y-83959600D01*
X127624715Y-86314808D01*
X126953656Y-88976010D01*
X126303868Y-91454141D01*
X125703053Y-93648370D01*
X125178915Y-95457867D01*
X124759157Y-96781802D01*
X124471482Y-97519343D01*
X123678635Y-98647991D01*
X122176099Y-99872036D01*
X120355956Y-100627435D01*
X120151352Y-100674626D01*
X119067187Y-100888694D01*
X117513057Y-101163478D01*
X115665306Y-101468607D01*
X113700280Y-101773710D01*
X112946329Y-101887364D01*
X111164816Y-102159825D01*
X109662941Y-102394926D01*
X108580136Y-102570649D01*
X108055835Y-102664980D01*
X107612726Y-102702674D01*
X106588219Y-102688865D01*
X105290744Y-102618196D01*
X103964141Y-102508302D01*
X102852254Y-102376820D01*
X102198924Y-102241384D01*
X101853253Y-101802355D01*
X101705835Y-100990434D01*
X101733569Y-100409436D01*
X101943717Y-100094262D01*
X102499585Y-100208176D01*
X102924956Y-100300229D01*
X103991011Y-100428524D01*
X105440669Y-100542142D01*
X107086931Y-100624129D01*
X108175724Y-100653062D01*
X110224477Y-100617954D01*
X112046952Y-100424300D01*
X113966098Y-100044906D01*
X114317030Y-99963998D01*
X116058107Y-99573837D01*
X117760879Y-99207541D01*
X119101371Y-98935124D01*
X120281937Y-98632355D01*
X121989737Y-97763620D01*
X123263712Y-96402020D01*
X124201371Y-94462031D01*
X124938118Y-92238546D01*
X125773941Y-89377370D01*
X126663929Y-85988889D01*
X127623022Y-82016012D01*
X128666162Y-77401648D01*
X129229415Y-74972785D01*
X130038165Y-71977170D01*
X130852672Y-69572057D01*
X131696835Y-67689677D01*
X132594554Y-66262263D01*
X132717322Y-66102151D01*
X133744386Y-64872885D01*
X134608160Y-64132955D01*
X135478038Y-63770804D01*
X136523414Y-63674878D01*
X137254634Y-63710317D01*
G37*
%TD*%
M02*
