%TF.GenerationSoftware,KiCad,Pcbnew,10.0.1*%
%TF.CreationDate,2026-06-04T00:59:34+08:00*%
%TF.ProjectId,edge_asset_monitor,65646765-5f61-4737-9365-745f6d6f6e69,1.0*%
%TF.SameCoordinates,Original*%
%TF.FileFunction,Legend,Top*%
%TF.FilePolarity,Positive*%
%FSLAX46Y46*%
G04 Gerber Fmt 4.6, Leading zero omitted, Abs format (unit mm)*
G04 Created by KiCad (PCBNEW 10.0.1) date 2026-06-04 00:59:34*
%MOMM*%
%LPD*%
G01*
G04 APERTURE LIST*
%ADD10C,0.125000*%
%ADD11C,0.187500*%
%ADD12C,0.150000*%
%ADD13C,0.000000*%
%ADD14C,0.120000*%
G04 APERTURE END LIST*
D10*
X124669140Y-55751238D02*
X124573902Y-55703619D01*
X124573902Y-55703619D02*
X124431045Y-55703619D01*
X124431045Y-55703619D02*
X124288188Y-55751238D01*
X124288188Y-55751238D02*
X124192950Y-55846476D01*
X124192950Y-55846476D02*
X124145331Y-55941714D01*
X124145331Y-55941714D02*
X124097712Y-56132190D01*
X124097712Y-56132190D02*
X124097712Y-56275047D01*
X124097712Y-56275047D02*
X124145331Y-56465523D01*
X124145331Y-56465523D02*
X124192950Y-56560761D01*
X124192950Y-56560761D02*
X124288188Y-56656000D01*
X124288188Y-56656000D02*
X124431045Y-56703619D01*
X124431045Y-56703619D02*
X124526283Y-56703619D01*
X124526283Y-56703619D02*
X124669140Y-56656000D01*
X124669140Y-56656000D02*
X124716759Y-56608380D01*
X124716759Y-56608380D02*
X124716759Y-56275047D01*
X124716759Y-56275047D02*
X124526283Y-56275047D01*
X125335807Y-56227428D02*
X125335807Y-56703619D01*
X125002474Y-55703619D02*
X125335807Y-56227428D01*
X125335807Y-56227428D02*
X125669140Y-55703619D01*
X126002474Y-56322666D02*
X126764379Y-56322666D01*
X127288188Y-56703619D02*
X127478664Y-56703619D01*
X127478664Y-56703619D02*
X127573902Y-56656000D01*
X127573902Y-56656000D02*
X127621521Y-56608380D01*
X127621521Y-56608380D02*
X127716759Y-56465523D01*
X127716759Y-56465523D02*
X127764378Y-56275047D01*
X127764378Y-56275047D02*
X127764378Y-55894095D01*
X127764378Y-55894095D02*
X127716759Y-55798857D01*
X127716759Y-55798857D02*
X127669140Y-55751238D01*
X127669140Y-55751238D02*
X127573902Y-55703619D01*
X127573902Y-55703619D02*
X127383426Y-55703619D01*
X127383426Y-55703619D02*
X127288188Y-55751238D01*
X127288188Y-55751238D02*
X127240569Y-55798857D01*
X127240569Y-55798857D02*
X127192950Y-55894095D01*
X127192950Y-55894095D02*
X127192950Y-56132190D01*
X127192950Y-56132190D02*
X127240569Y-56227428D01*
X127240569Y-56227428D02*
X127288188Y-56275047D01*
X127288188Y-56275047D02*
X127383426Y-56322666D01*
X127383426Y-56322666D02*
X127573902Y-56322666D01*
X127573902Y-56322666D02*
X127669140Y-56275047D01*
X127669140Y-56275047D02*
X127716759Y-56227428D01*
X127716759Y-56227428D02*
X127764378Y-56132190D01*
X128383426Y-55703619D02*
X128478664Y-55703619D01*
X128478664Y-55703619D02*
X128573902Y-55751238D01*
X128573902Y-55751238D02*
X128621521Y-55798857D01*
X128621521Y-55798857D02*
X128669140Y-55894095D01*
X128669140Y-55894095D02*
X128716759Y-56084571D01*
X128716759Y-56084571D02*
X128716759Y-56322666D01*
X128716759Y-56322666D02*
X128669140Y-56513142D01*
X128669140Y-56513142D02*
X128621521Y-56608380D01*
X128621521Y-56608380D02*
X128573902Y-56656000D01*
X128573902Y-56656000D02*
X128478664Y-56703619D01*
X128478664Y-56703619D02*
X128383426Y-56703619D01*
X128383426Y-56703619D02*
X128288188Y-56656000D01*
X128288188Y-56656000D02*
X128240569Y-56608380D01*
X128240569Y-56608380D02*
X128192950Y-56513142D01*
X128192950Y-56513142D02*
X128145331Y-56322666D01*
X128145331Y-56322666D02*
X128145331Y-56084571D01*
X128145331Y-56084571D02*
X128192950Y-55894095D01*
X128192950Y-55894095D02*
X128240569Y-55798857D01*
X128240569Y-55798857D02*
X128288188Y-55751238D01*
X128288188Y-55751238D02*
X128383426Y-55703619D01*
X129573902Y-55703619D02*
X129383426Y-55703619D01*
X129383426Y-55703619D02*
X129288188Y-55751238D01*
X129288188Y-55751238D02*
X129240569Y-55798857D01*
X129240569Y-55798857D02*
X129145331Y-55941714D01*
X129145331Y-55941714D02*
X129097712Y-56132190D01*
X129097712Y-56132190D02*
X129097712Y-56513142D01*
X129097712Y-56513142D02*
X129145331Y-56608380D01*
X129145331Y-56608380D02*
X129192950Y-56656000D01*
X129192950Y-56656000D02*
X129288188Y-56703619D01*
X129288188Y-56703619D02*
X129478664Y-56703619D01*
X129478664Y-56703619D02*
X129573902Y-56656000D01*
X129573902Y-56656000D02*
X129621521Y-56608380D01*
X129621521Y-56608380D02*
X129669140Y-56513142D01*
X129669140Y-56513142D02*
X129669140Y-56275047D01*
X129669140Y-56275047D02*
X129621521Y-56179809D01*
X129621521Y-56179809D02*
X129573902Y-56132190D01*
X129573902Y-56132190D02*
X129478664Y-56084571D01*
X129478664Y-56084571D02*
X129288188Y-56084571D01*
X129288188Y-56084571D02*
X129192950Y-56132190D01*
X129192950Y-56132190D02*
X129145331Y-56179809D01*
X129145331Y-56179809D02*
X129097712Y-56275047D01*
X126372831Y-52893619D02*
X126372831Y-51893619D01*
X126849021Y-52893619D02*
X126849021Y-51893619D01*
X126849021Y-51893619D02*
X127420449Y-52893619D01*
X127420449Y-52893619D02*
X127420449Y-51893619D01*
X127896640Y-52893619D02*
X127896640Y-51893619D01*
X127896640Y-51893619D02*
X128229973Y-52607904D01*
X128229973Y-52607904D02*
X128563306Y-51893619D01*
X128563306Y-51893619D02*
X128563306Y-52893619D01*
X129039497Y-52893619D02*
X129039497Y-51893619D01*
X129039497Y-51893619D02*
X129420449Y-51893619D01*
X129420449Y-51893619D02*
X129515687Y-51941238D01*
X129515687Y-51941238D02*
X129563306Y-51988857D01*
X129563306Y-51988857D02*
X129610925Y-52084095D01*
X129610925Y-52084095D02*
X129610925Y-52226952D01*
X129610925Y-52226952D02*
X129563306Y-52322190D01*
X129563306Y-52322190D02*
X129515687Y-52369809D01*
X129515687Y-52369809D02*
X129420449Y-52417428D01*
X129420449Y-52417428D02*
X129039497Y-52417428D01*
X130468068Y-52226952D02*
X130468068Y-52893619D01*
X130229973Y-51846000D02*
X129991878Y-52560285D01*
X129991878Y-52560285D02*
X130610925Y-52560285D01*
X131420449Y-52226952D02*
X131420449Y-52893619D01*
X131182354Y-51846000D02*
X130944259Y-52560285D01*
X130944259Y-52560285D02*
X131563306Y-52560285D01*
X132468068Y-52893619D02*
X131896640Y-52893619D01*
X132182354Y-52893619D02*
X132182354Y-51893619D01*
X132182354Y-51893619D02*
X132087116Y-52036476D01*
X132087116Y-52036476D02*
X131991878Y-52131714D01*
X131991878Y-52131714D02*
X131896640Y-52179333D01*
X136084200Y-153334809D02*
X136417533Y-153334809D01*
X136560390Y-153858619D02*
X136084200Y-153858619D01*
X136084200Y-153858619D02*
X136084200Y-152858619D01*
X136084200Y-152858619D02*
X136560390Y-152858619D01*
X136941343Y-153811000D02*
X137084200Y-153858619D01*
X137084200Y-153858619D02*
X137322295Y-153858619D01*
X137322295Y-153858619D02*
X137417533Y-153811000D01*
X137417533Y-153811000D02*
X137465152Y-153763380D01*
X137465152Y-153763380D02*
X137512771Y-153668142D01*
X137512771Y-153668142D02*
X137512771Y-153572904D01*
X137512771Y-153572904D02*
X137465152Y-153477666D01*
X137465152Y-153477666D02*
X137417533Y-153430047D01*
X137417533Y-153430047D02*
X137322295Y-153382428D01*
X137322295Y-153382428D02*
X137131819Y-153334809D01*
X137131819Y-153334809D02*
X137036581Y-153287190D01*
X137036581Y-153287190D02*
X136988962Y-153239571D01*
X136988962Y-153239571D02*
X136941343Y-153144333D01*
X136941343Y-153144333D02*
X136941343Y-153049095D01*
X136941343Y-153049095D02*
X136988962Y-152953857D01*
X136988962Y-152953857D02*
X137036581Y-152906238D01*
X137036581Y-152906238D02*
X137131819Y-152858619D01*
X137131819Y-152858619D02*
X137369914Y-152858619D01*
X137369914Y-152858619D02*
X137512771Y-152906238D01*
X137941343Y-153858619D02*
X137941343Y-152858619D01*
X137941343Y-152858619D02*
X138322295Y-152858619D01*
X138322295Y-152858619D02*
X138417533Y-152906238D01*
X138417533Y-152906238D02*
X138465152Y-152953857D01*
X138465152Y-152953857D02*
X138512771Y-153049095D01*
X138512771Y-153049095D02*
X138512771Y-153191952D01*
X138512771Y-153191952D02*
X138465152Y-153287190D01*
X138465152Y-153287190D02*
X138417533Y-153334809D01*
X138417533Y-153334809D02*
X138322295Y-153382428D01*
X138322295Y-153382428D02*
X137941343Y-153382428D01*
X138846105Y-152858619D02*
X139465152Y-152858619D01*
X139465152Y-152858619D02*
X139131819Y-153239571D01*
X139131819Y-153239571D02*
X139274676Y-153239571D01*
X139274676Y-153239571D02*
X139369914Y-153287190D01*
X139369914Y-153287190D02*
X139417533Y-153334809D01*
X139417533Y-153334809D02*
X139465152Y-153430047D01*
X139465152Y-153430047D02*
X139465152Y-153668142D01*
X139465152Y-153668142D02*
X139417533Y-153763380D01*
X139417533Y-153763380D02*
X139369914Y-153811000D01*
X139369914Y-153811000D02*
X139274676Y-153858619D01*
X139274676Y-153858619D02*
X138988962Y-153858619D01*
X138988962Y-153858619D02*
X138893724Y-153811000D01*
X138893724Y-153811000D02*
X138846105Y-153763380D01*
X139846105Y-152953857D02*
X139893724Y-152906238D01*
X139893724Y-152906238D02*
X139988962Y-152858619D01*
X139988962Y-152858619D02*
X140227057Y-152858619D01*
X140227057Y-152858619D02*
X140322295Y-152906238D01*
X140322295Y-152906238D02*
X140369914Y-152953857D01*
X140369914Y-152953857D02*
X140417533Y-153049095D01*
X140417533Y-153049095D02*
X140417533Y-153144333D01*
X140417533Y-153144333D02*
X140369914Y-153287190D01*
X140369914Y-153287190D02*
X139798486Y-153858619D01*
X139798486Y-153858619D02*
X140417533Y-153858619D01*
X140846105Y-153477666D02*
X141608010Y-153477666D01*
X142036581Y-153811000D02*
X142179438Y-153858619D01*
X142179438Y-153858619D02*
X142417533Y-153858619D01*
X142417533Y-153858619D02*
X142512771Y-153811000D01*
X142512771Y-153811000D02*
X142560390Y-153763380D01*
X142560390Y-153763380D02*
X142608009Y-153668142D01*
X142608009Y-153668142D02*
X142608009Y-153572904D01*
X142608009Y-153572904D02*
X142560390Y-153477666D01*
X142560390Y-153477666D02*
X142512771Y-153430047D01*
X142512771Y-153430047D02*
X142417533Y-153382428D01*
X142417533Y-153382428D02*
X142227057Y-153334809D01*
X142227057Y-153334809D02*
X142131819Y-153287190D01*
X142131819Y-153287190D02*
X142084200Y-153239571D01*
X142084200Y-153239571D02*
X142036581Y-153144333D01*
X142036581Y-153144333D02*
X142036581Y-153049095D01*
X142036581Y-153049095D02*
X142084200Y-152953857D01*
X142084200Y-152953857D02*
X142131819Y-152906238D01*
X142131819Y-152906238D02*
X142227057Y-152858619D01*
X142227057Y-152858619D02*
X142465152Y-152858619D01*
X142465152Y-152858619D02*
X142608009Y-152906238D01*
X142941343Y-152858619D02*
X143560390Y-152858619D01*
X143560390Y-152858619D02*
X143227057Y-153239571D01*
X143227057Y-153239571D02*
X143369914Y-153239571D01*
X143369914Y-153239571D02*
X143465152Y-153287190D01*
X143465152Y-153287190D02*
X143512771Y-153334809D01*
X143512771Y-153334809D02*
X143560390Y-153430047D01*
X143560390Y-153430047D02*
X143560390Y-153668142D01*
X143560390Y-153668142D02*
X143512771Y-153763380D01*
X143512771Y-153763380D02*
X143465152Y-153811000D01*
X143465152Y-153811000D02*
X143369914Y-153858619D01*
X143369914Y-153858619D02*
X143084200Y-153858619D01*
X143084200Y-153858619D02*
X142988962Y-153811000D01*
X142988962Y-153811000D02*
X142941343Y-153763380D01*
X148148331Y-123061119D02*
X148148331Y-122061119D01*
X148957854Y-122537309D02*
X149100711Y-122584928D01*
X149100711Y-122584928D02*
X149148330Y-122632547D01*
X149148330Y-122632547D02*
X149195949Y-122727785D01*
X149195949Y-122727785D02*
X149195949Y-122870642D01*
X149195949Y-122870642D02*
X149148330Y-122965880D01*
X149148330Y-122965880D02*
X149100711Y-123013500D01*
X149100711Y-123013500D02*
X149005473Y-123061119D01*
X149005473Y-123061119D02*
X148624521Y-123061119D01*
X148624521Y-123061119D02*
X148624521Y-122061119D01*
X148624521Y-122061119D02*
X148957854Y-122061119D01*
X148957854Y-122061119D02*
X149053092Y-122108738D01*
X149053092Y-122108738D02*
X149100711Y-122156357D01*
X149100711Y-122156357D02*
X149148330Y-122251595D01*
X149148330Y-122251595D02*
X149148330Y-122346833D01*
X149148330Y-122346833D02*
X149100711Y-122442071D01*
X149100711Y-122442071D02*
X149053092Y-122489690D01*
X149053092Y-122489690D02*
X148957854Y-122537309D01*
X148957854Y-122537309D02*
X148624521Y-122537309D01*
X149481664Y-122061119D02*
X150053092Y-122061119D01*
X149767378Y-123061119D02*
X149767378Y-122061119D01*
X150148331Y-123156357D02*
X150910235Y-123156357D01*
X151672140Y-123061119D02*
X151100712Y-123061119D01*
X151386426Y-123061119D02*
X151386426Y-122061119D01*
X151386426Y-122061119D02*
X151291188Y-122203976D01*
X151291188Y-122203976D02*
X151195950Y-122299214D01*
X151195950Y-122299214D02*
X151100712Y-122346833D01*
D11*
X131758831Y-83322750D02*
X131901688Y-83370369D01*
X131901688Y-83370369D02*
X132139783Y-83370369D01*
X132139783Y-83370369D02*
X132235021Y-83322750D01*
X132235021Y-83322750D02*
X132282640Y-83275130D01*
X132282640Y-83275130D02*
X132330259Y-83179892D01*
X132330259Y-83179892D02*
X132330259Y-83084654D01*
X132330259Y-83084654D02*
X132282640Y-82989416D01*
X132282640Y-82989416D02*
X132235021Y-82941797D01*
X132235021Y-82941797D02*
X132139783Y-82894178D01*
X132139783Y-82894178D02*
X131949307Y-82846559D01*
X131949307Y-82846559D02*
X131854069Y-82798940D01*
X131854069Y-82798940D02*
X131806450Y-82751321D01*
X131806450Y-82751321D02*
X131758831Y-82656083D01*
X131758831Y-82656083D02*
X131758831Y-82560845D01*
X131758831Y-82560845D02*
X131806450Y-82465607D01*
X131806450Y-82465607D02*
X131854069Y-82417988D01*
X131854069Y-82417988D02*
X131949307Y-82370369D01*
X131949307Y-82370369D02*
X132187402Y-82370369D01*
X132187402Y-82370369D02*
X132330259Y-82417988D01*
X132615974Y-82370369D02*
X133187402Y-82370369D01*
X132901688Y-83370369D02*
X132901688Y-82370369D01*
X133520736Y-82846559D02*
X133854069Y-82846559D01*
X133996926Y-83370369D02*
X133520736Y-83370369D01*
X133520736Y-83370369D02*
X133520736Y-82370369D01*
X133520736Y-82370369D02*
X133996926Y-82370369D01*
X134282641Y-82370369D02*
X134615974Y-83370369D01*
X134615974Y-83370369D02*
X134949307Y-82370369D01*
X135235022Y-83084654D02*
X135711212Y-83084654D01*
X135139784Y-83370369D02*
X135473117Y-82370369D01*
X135473117Y-82370369D02*
X135806450Y-83370369D01*
X136615974Y-83370369D02*
X136139784Y-83370369D01*
X136139784Y-83370369D02*
X136139784Y-82370369D01*
X136949308Y-82989416D02*
X137711213Y-82989416D01*
X138187403Y-83370369D02*
X138187403Y-82370369D01*
X138187403Y-82370369D02*
X138520736Y-83084654D01*
X138520736Y-83084654D02*
X138854069Y-82370369D01*
X138854069Y-82370369D02*
X138854069Y-83370369D01*
X139330260Y-83370369D02*
X139330260Y-82370369D01*
X139901688Y-83370369D02*
X139473117Y-82798940D01*
X139901688Y-82370369D02*
X139330260Y-82941797D01*
X140330260Y-83370369D02*
X140330260Y-82370369D01*
X141330259Y-82417988D02*
X141235021Y-82370369D01*
X141235021Y-82370369D02*
X141092164Y-82370369D01*
X141092164Y-82370369D02*
X140949307Y-82417988D01*
X140949307Y-82417988D02*
X140854069Y-82513226D01*
X140854069Y-82513226D02*
X140806450Y-82608464D01*
X140806450Y-82608464D02*
X140758831Y-82798940D01*
X140758831Y-82798940D02*
X140758831Y-82941797D01*
X140758831Y-82941797D02*
X140806450Y-83132273D01*
X140806450Y-83132273D02*
X140854069Y-83227511D01*
X140854069Y-83227511D02*
X140949307Y-83322750D01*
X140949307Y-83322750D02*
X141092164Y-83370369D01*
X141092164Y-83370369D02*
X141187402Y-83370369D01*
X141187402Y-83370369D02*
X141330259Y-83322750D01*
X141330259Y-83322750D02*
X141377878Y-83275130D01*
X141377878Y-83275130D02*
X141377878Y-82941797D01*
X141377878Y-82941797D02*
X141187402Y-82941797D01*
X141806450Y-83370369D02*
X141806450Y-82370369D01*
X142615973Y-82846559D02*
X142758830Y-82894178D01*
X142758830Y-82894178D02*
X142806449Y-82941797D01*
X142806449Y-82941797D02*
X142854068Y-83037035D01*
X142854068Y-83037035D02*
X142854068Y-83179892D01*
X142854068Y-83179892D02*
X142806449Y-83275130D01*
X142806449Y-83275130D02*
X142758830Y-83322750D01*
X142758830Y-83322750D02*
X142663592Y-83370369D01*
X142663592Y-83370369D02*
X142282640Y-83370369D01*
X142282640Y-83370369D02*
X142282640Y-82370369D01*
X142282640Y-82370369D02*
X142615973Y-82370369D01*
X142615973Y-82370369D02*
X142711211Y-82417988D01*
X142711211Y-82417988D02*
X142758830Y-82465607D01*
X142758830Y-82465607D02*
X142806449Y-82560845D01*
X142806449Y-82560845D02*
X142806449Y-82656083D01*
X142806449Y-82656083D02*
X142758830Y-82751321D01*
X142758830Y-82751321D02*
X142711211Y-82798940D01*
X142711211Y-82798940D02*
X142615973Y-82846559D01*
X142615973Y-82846559D02*
X142282640Y-82846559D01*
X143139783Y-82370369D02*
X143473116Y-83370369D01*
X143473116Y-83370369D02*
X143806449Y-82370369D01*
X144092164Y-82465607D02*
X144139783Y-82417988D01*
X144139783Y-82417988D02*
X144235021Y-82370369D01*
X144235021Y-82370369D02*
X144473116Y-82370369D01*
X144473116Y-82370369D02*
X144568354Y-82417988D01*
X144568354Y-82417988D02*
X144615973Y-82465607D01*
X144615973Y-82465607D02*
X144663592Y-82560845D01*
X144663592Y-82560845D02*
X144663592Y-82656083D01*
X144663592Y-82656083D02*
X144615973Y-82798940D01*
X144615973Y-82798940D02*
X144044545Y-83370369D01*
X144044545Y-83370369D02*
X144663592Y-83370369D01*
D12*
X147899666Y-103594819D02*
X147899666Y-104309104D01*
X147899666Y-104309104D02*
X147852047Y-104451961D01*
X147852047Y-104451961D02*
X147756809Y-104547200D01*
X147756809Y-104547200D02*
X147613952Y-104594819D01*
X147613952Y-104594819D02*
X147518714Y-104594819D01*
X148137762Y-104690057D02*
X148899666Y-104690057D01*
X149137762Y-104594819D02*
X149137762Y-103594819D01*
X149947285Y-104071009D02*
X150090142Y-104118628D01*
X150090142Y-104118628D02*
X150137761Y-104166247D01*
X150137761Y-104166247D02*
X150185380Y-104261485D01*
X150185380Y-104261485D02*
X150185380Y-104404342D01*
X150185380Y-104404342D02*
X150137761Y-104499580D01*
X150137761Y-104499580D02*
X150090142Y-104547200D01*
X150090142Y-104547200D02*
X149994904Y-104594819D01*
X149994904Y-104594819D02*
X149613952Y-104594819D01*
X149613952Y-104594819D02*
X149613952Y-103594819D01*
X149613952Y-103594819D02*
X149947285Y-103594819D01*
X149947285Y-103594819D02*
X150042523Y-103642438D01*
X150042523Y-103642438D02*
X150090142Y-103690057D01*
X150090142Y-103690057D02*
X150137761Y-103785295D01*
X150137761Y-103785295D02*
X150137761Y-103880533D01*
X150137761Y-103880533D02*
X150090142Y-103975771D01*
X150090142Y-103975771D02*
X150042523Y-104023390D01*
X150042523Y-104023390D02*
X149947285Y-104071009D01*
X149947285Y-104071009D02*
X149613952Y-104071009D01*
X150471095Y-103594819D02*
X151042523Y-103594819D01*
X150756809Y-104594819D02*
X150756809Y-103594819D01*
X151899666Y-104594819D02*
X151328238Y-104594819D01*
X151613952Y-104594819D02*
X151613952Y-103594819D01*
X151613952Y-103594819D02*
X151518714Y-103737676D01*
X151518714Y-103737676D02*
X151423476Y-103832914D01*
X151423476Y-103832914D02*
X151328238Y-103880533D01*
X135257319Y-59499404D02*
X136066842Y-59499404D01*
X136066842Y-59499404D02*
X136162080Y-59451785D01*
X136162080Y-59451785D02*
X136209700Y-59404166D01*
X136209700Y-59404166D02*
X136257319Y-59308928D01*
X136257319Y-59308928D02*
X136257319Y-59118452D01*
X136257319Y-59118452D02*
X136209700Y-59023214D01*
X136209700Y-59023214D02*
X136162080Y-58975595D01*
X136162080Y-58975595D02*
X136066842Y-58927976D01*
X136066842Y-58927976D02*
X135257319Y-58927976D01*
X135257319Y-58547023D02*
X135257319Y-57927976D01*
X135257319Y-57927976D02*
X135638271Y-58261309D01*
X135638271Y-58261309D02*
X135638271Y-58118452D01*
X135638271Y-58118452D02*
X135685890Y-58023214D01*
X135685890Y-58023214D02*
X135733509Y-57975595D01*
X135733509Y-57975595D02*
X135828747Y-57927976D01*
X135828747Y-57927976D02*
X136066842Y-57927976D01*
X136066842Y-57927976D02*
X136162080Y-57975595D01*
X136162080Y-57975595D02*
X136209700Y-58023214D01*
X136209700Y-58023214D02*
X136257319Y-58118452D01*
X136257319Y-58118452D02*
X136257319Y-58404166D01*
X136257319Y-58404166D02*
X136209700Y-58499404D01*
X136209700Y-58499404D02*
X136162080Y-58547023D01*
X114173095Y-82322319D02*
X114173095Y-83131842D01*
X114173095Y-83131842D02*
X114220714Y-83227080D01*
X114220714Y-83227080D02*
X114268333Y-83274700D01*
X114268333Y-83274700D02*
X114363571Y-83322319D01*
X114363571Y-83322319D02*
X114554047Y-83322319D01*
X114554047Y-83322319D02*
X114649285Y-83274700D01*
X114649285Y-83274700D02*
X114696904Y-83227080D01*
X114696904Y-83227080D02*
X114744523Y-83131842D01*
X114744523Y-83131842D02*
X114744523Y-82322319D01*
X115649285Y-82655652D02*
X115649285Y-83322319D01*
X115411190Y-82274700D02*
X115173095Y-82988985D01*
X115173095Y-82988985D02*
X115792142Y-82988985D01*
X128465595Y-41892319D02*
X128465595Y-42701842D01*
X128465595Y-42701842D02*
X128513214Y-42797080D01*
X128513214Y-42797080D02*
X128560833Y-42844700D01*
X128560833Y-42844700D02*
X128656071Y-42892319D01*
X128656071Y-42892319D02*
X128846547Y-42892319D01*
X128846547Y-42892319D02*
X128941785Y-42844700D01*
X128941785Y-42844700D02*
X128989404Y-42797080D01*
X128989404Y-42797080D02*
X129037023Y-42701842D01*
X129037023Y-42701842D02*
X129037023Y-41892319D01*
X129465595Y-41987557D02*
X129513214Y-41939938D01*
X129513214Y-41939938D02*
X129608452Y-41892319D01*
X129608452Y-41892319D02*
X129846547Y-41892319D01*
X129846547Y-41892319D02*
X129941785Y-41939938D01*
X129941785Y-41939938D02*
X129989404Y-41987557D01*
X129989404Y-41987557D02*
X130037023Y-42082795D01*
X130037023Y-42082795D02*
X130037023Y-42178033D01*
X130037023Y-42178033D02*
X129989404Y-42320890D01*
X129989404Y-42320890D02*
X129417976Y-42892319D01*
X129417976Y-42892319D02*
X130037023Y-42892319D01*
X115443095Y-152807319D02*
X115443095Y-153616842D01*
X115443095Y-153616842D02*
X115490714Y-153712080D01*
X115490714Y-153712080D02*
X115538333Y-153759700D01*
X115538333Y-153759700D02*
X115633571Y-153807319D01*
X115633571Y-153807319D02*
X115824047Y-153807319D01*
X115824047Y-153807319D02*
X115919285Y-153759700D01*
X115919285Y-153759700D02*
X115966904Y-153712080D01*
X115966904Y-153712080D02*
X116014523Y-153616842D01*
X116014523Y-153616842D02*
X116014523Y-152807319D01*
X117014523Y-153807319D02*
X116443095Y-153807319D01*
X116728809Y-153807319D02*
X116728809Y-152807319D01*
X116728809Y-152807319D02*
X116633571Y-152950176D01*
X116633571Y-152950176D02*
X116538333Y-153045414D01*
X116538333Y-153045414D02*
X116443095Y-153093033D01*
D13*
%TO.C,G\u002A\u002A\u002A*%
G36*
X129256999Y-49188033D02*
G01*
X129281114Y-49191146D01*
X129293424Y-49193792D01*
X129332455Y-49206703D01*
X129368350Y-49224453D01*
X129400813Y-49246755D01*
X129429553Y-49273326D01*
X129454275Y-49303879D01*
X129474685Y-49338129D01*
X129490492Y-49375792D01*
X129494838Y-49389577D01*
X129496071Y-49393899D01*
X129497140Y-49398054D01*
X129498058Y-49402471D01*
X129498835Y-49407580D01*
X129499483Y-49413810D01*
X129500015Y-49421591D01*
X129500441Y-49431352D01*
X129500773Y-49443524D01*
X129501023Y-49458536D01*
X129501203Y-49476817D01*
X129501324Y-49498797D01*
X129501398Y-49524906D01*
X129501436Y-49555573D01*
X129501450Y-49591228D01*
X129501453Y-49632301D01*
X129501453Y-49633611D01*
X129501453Y-49854824D01*
X129490276Y-49888950D01*
X129474967Y-49926676D01*
X129454996Y-49960978D01*
X129430626Y-49991606D01*
X129402120Y-50018310D01*
X129369741Y-50040841D01*
X129333752Y-50058950D01*
X129297819Y-50071451D01*
X129289369Y-50073361D01*
X129277496Y-50075460D01*
X129263789Y-50077535D01*
X129249840Y-50079374D01*
X129237238Y-50080762D01*
X129227574Y-50081488D01*
X129223105Y-50081457D01*
X129218955Y-50081005D01*
X129210622Y-50080114D01*
X129199752Y-50078960D01*
X129197400Y-50078711D01*
X129159116Y-50071786D01*
X129122451Y-50059510D01*
X129087944Y-50042293D01*
X129056130Y-50020543D01*
X129027548Y-49994669D01*
X129002734Y-49965080D01*
X128982225Y-49932184D01*
X128970024Y-49905669D01*
X128966717Y-49897232D01*
X128963837Y-49889485D01*
X128961356Y-49881975D01*
X128959246Y-49874253D01*
X128957478Y-49865868D01*
X128956027Y-49856368D01*
X128954863Y-49845302D01*
X128953960Y-49832220D01*
X128953289Y-49816670D01*
X128952823Y-49798202D01*
X128952534Y-49776364D01*
X128952394Y-49750706D01*
X128952377Y-49720775D01*
X128952453Y-49686123D01*
X128952596Y-49646297D01*
X128952687Y-49623308D01*
X128953546Y-49409467D01*
X128964472Y-49377238D01*
X128980384Y-49338938D01*
X129000821Y-49304204D01*
X129025515Y-49273289D01*
X129054196Y-49246449D01*
X129086593Y-49223939D01*
X129122437Y-49206013D01*
X129158645Y-49193676D01*
X129179677Y-49189547D01*
X129204360Y-49187232D01*
X129230775Y-49186727D01*
X129256999Y-49188033D01*
G37*
G36*
X128859244Y-49756480D02*
G01*
X128873442Y-49762840D01*
X128881181Y-49769256D01*
X128889034Y-49779431D01*
X128893844Y-49791288D01*
X128896093Y-49806336D01*
X128896412Y-49817124D01*
X128898342Y-49843266D01*
X128903860Y-49872250D01*
X128912560Y-49902634D01*
X128924033Y-49932972D01*
X128936504Y-49959252D01*
X128947141Y-49977183D01*
X128960676Y-49996659D01*
X128975845Y-50016085D01*
X128991384Y-50033869D01*
X129006029Y-50048418D01*
X129009927Y-50051803D01*
X129046473Y-50078821D01*
X129084941Y-50100587D01*
X129124968Y-50116984D01*
X129166189Y-50127895D01*
X129208242Y-50133203D01*
X129250764Y-50132791D01*
X129259185Y-50132023D01*
X129303266Y-50124575D01*
X129345056Y-50111761D01*
X129384344Y-50093695D01*
X129420921Y-50070488D01*
X129454576Y-50042253D01*
X129482292Y-50012518D01*
X129506262Y-49979551D01*
X129526167Y-49943502D01*
X129541546Y-49905463D01*
X129551935Y-49866522D01*
X129556023Y-49838979D01*
X129557913Y-49819682D01*
X129559436Y-49805288D01*
X129560816Y-49794870D01*
X129562274Y-49787501D01*
X129564033Y-49782253D01*
X129566315Y-49778200D01*
X129569343Y-49774414D01*
X129572302Y-49771120D01*
X129585356Y-49760636D01*
X129600228Y-49755346D01*
X129615845Y-49755356D01*
X129631130Y-49760772D01*
X129637275Y-49764745D01*
X129644888Y-49771518D01*
X129650131Y-49779272D01*
X129653303Y-49789102D01*
X129654706Y-49802102D01*
X129654637Y-49819369D01*
X129654302Y-49826990D01*
X129648914Y-49876318D01*
X129637927Y-49924103D01*
X129621442Y-49970044D01*
X129599559Y-50013841D01*
X129583312Y-50039804D01*
X129554509Y-50078361D01*
X129523519Y-50111936D01*
X129489539Y-50141245D01*
X129451767Y-50167000D01*
X129420878Y-50184202D01*
X129400960Y-50193884D01*
X129381786Y-50201972D01*
X129362088Y-50208858D01*
X129340597Y-50214933D01*
X129316046Y-50220587D01*
X129287165Y-50226213D01*
X129280972Y-50227331D01*
X129274379Y-50228509D01*
X129274379Y-50320747D01*
X129274379Y-50412986D01*
X129332358Y-50412986D01*
X129352398Y-50413025D01*
X129367524Y-50413201D01*
X129378686Y-50413602D01*
X129386829Y-50414315D01*
X129392900Y-50415430D01*
X129397847Y-50417033D01*
X129402617Y-50419213D01*
X129403343Y-50419578D01*
X129416371Y-50428949D01*
X129424511Y-50441472D01*
X129427881Y-50457348D01*
X129427994Y-50461330D01*
X129425495Y-50478154D01*
X129418056Y-50491880D01*
X129405763Y-50502355D01*
X129404600Y-50503033D01*
X129393043Y-50509579D01*
X129228853Y-50509627D01*
X129064662Y-50509675D01*
X129051656Y-50503083D01*
X129038628Y-50493711D01*
X129030488Y-50481189D01*
X129027118Y-50465313D01*
X129027005Y-50461330D01*
X129029337Y-50444686D01*
X129036412Y-50431439D01*
X129048349Y-50421389D01*
X129051656Y-50419578D01*
X129056478Y-50417308D01*
X129061342Y-50415628D01*
X129067193Y-50414449D01*
X129074980Y-50413683D01*
X129085650Y-50413243D01*
X129100149Y-50413040D01*
X129119425Y-50412986D01*
X129122641Y-50412986D01*
X129180620Y-50412986D01*
X129180620Y-50320747D01*
X129180620Y-50228509D01*
X129174027Y-50227331D01*
X129144162Y-50221666D01*
X129118872Y-50216047D01*
X129096889Y-50210084D01*
X129076943Y-50203385D01*
X129057767Y-50195560D01*
X129038091Y-50186218D01*
X129034121Y-50184202D01*
X129010135Y-50171300D01*
X128989607Y-50158720D01*
X128970399Y-50145050D01*
X128950373Y-50128875D01*
X128950258Y-50128778D01*
X128914695Y-50094892D01*
X128883463Y-50057311D01*
X128856807Y-50016528D01*
X128834973Y-49973035D01*
X128818206Y-49927324D01*
X128806750Y-49879889D01*
X128800851Y-49831220D01*
X128800679Y-49828271D01*
X128800073Y-49809134D01*
X128800823Y-49794627D01*
X128803202Y-49783618D01*
X128807479Y-49774978D01*
X128813928Y-49767579D01*
X128815619Y-49766044D01*
X128828906Y-49758013D01*
X128843923Y-49754848D01*
X128859244Y-49756480D01*
G37*
%TO.C,J_IBT1*%
D14*
X148353000Y-105604800D02*
X149733000Y-105604800D01*
X148353000Y-106984800D02*
X148353000Y-105604800D01*
X148353000Y-108254800D02*
X148353000Y-121064800D01*
X148353000Y-108254800D02*
X151113000Y-108254800D01*
X148353000Y-121064800D02*
X151113000Y-121064800D01*
X151113000Y-108254800D02*
X151113000Y-121064800D01*
%TO.C,U3*%
X124082500Y-57407500D02*
X124082500Y-60067500D01*
X131762500Y-57407500D02*
X124082500Y-57407500D01*
X131762500Y-57407500D02*
X131762500Y-60067500D01*
X131762500Y-60067500D02*
X124082500Y-60067500D01*
X134362500Y-58737500D02*
X134362500Y-60067500D01*
X134362500Y-60067500D02*
X133032500Y-60067500D01*
%TO.C,U4*%
X113922500Y-66247500D02*
X113922500Y-79167500D01*
X113922500Y-79167500D02*
X144522500Y-79167500D01*
X144522500Y-66247500D02*
X113922500Y-66247500D01*
X144522500Y-71707500D02*
X144522500Y-66247500D01*
X144522500Y-79167500D02*
X144522500Y-73707500D01*
X144522500Y-73707500D02*
G75*
G02*
X144522500Y-71707500I0J1000000D01*
G01*
%TO.C,U2*%
X126577500Y-43437500D02*
X126577500Y-51177500D01*
X126577500Y-51177500D02*
X131877500Y-51177500D01*
X128227500Y-43437500D02*
X126577500Y-43437500D01*
X131877500Y-43437500D02*
X130227500Y-43437500D01*
X131877500Y-51177500D02*
X131877500Y-43437500D01*
X130227500Y-43437500D02*
G75*
G02*
X128227500Y-43437500I-1000000J0D01*
G01*
%TO.C,U1*%
X115192500Y-98107500D02*
X115192500Y-151507500D01*
X115192500Y-98107500D02*
X117852500Y-98107500D01*
X115192500Y-151507500D02*
X117852500Y-151507500D01*
X116522500Y-95507500D02*
X117852500Y-95507500D01*
X117852500Y-95507500D02*
X117852500Y-96837500D01*
X117852500Y-98107500D02*
X117852500Y-151507500D01*
X140592500Y-98107500D02*
X140592500Y-151507500D01*
X140592500Y-98107500D02*
X143252500Y-98107500D01*
X140592500Y-151507500D02*
X143252500Y-151507500D01*
X141922500Y-95507500D02*
X143252500Y-95507500D01*
X143252500Y-95507500D02*
X143252500Y-96837500D01*
X143252500Y-98107500D02*
X143252500Y-151507500D01*
%TD*%
M02*
